<svg xmlns="http://www.w3.org/2000/svg" width="19" height="20" viewBox="0 0 19 20" fill="none"><path d="M2.51927 20H13.6659C13.8524 20 14.0319 19.9222 14.162 19.7815L18.0887 15.6482C18.2223 15.5075 18.2962 15.3222 18.2962 15.126V4.13331C18.2962 2.67035 17.1668 1.48145 15.777 1.48145H14.7777V0.740727C14.7778 0.333315 14.4611 0 14.074 0C13.687 0 13.3704 0.333315 13.3704 0.740727V1.48145H4.92595V0.740727C4.92595 0.333315 4.60924 0 4.2222 0C3.83516 0 3.51851 0.333315 3.51851 0.740727V1.48145H2.51927C1.12945 1.48145 0 2.67035 0 4.13331V17.3481C0 18.8111 1.12945 20 2.51927 20ZM13.7222 18.1518V15.7703C13.7222 15.6518 13.8137 15.5555 13.9263 15.5555H16.1887L13.7222 18.1518ZM1.40744 4.13331C1.40744 3.48889 1.90706 2.96297 2.51927 2.96297H3.51851V3.7037C3.51851 4.11111 3.83516 4.44442 4.2222 4.44442C4.60924 4.44442 4.92589 4.11111 4.92589 3.7037V2.96297H13.3704V3.7037C13.3704 4.11111 13.687 4.44442 14.074 4.44442C14.4611 4.44442 14.7777 4.11111 14.7777 3.7037V2.96297H15.777C16.3892 2.96297 16.8888 3.48889 16.8888 4.13331V14.0741H13.9262C13.036 14.0741 12.3147 14.8333 12.3147 15.7704V18.5185H2.51927C1.90706 18.5185 1.40744 17.9926 1.40744 17.3482V4.13331Z" fill="white"></path><path d="M5.10178 8.51844C5.58758 8.51844 5.98139 8.1039 5.98139 7.59253C5.98139 7.08117 5.58758 6.66663 5.10178 6.66663C4.61598 6.66663 4.22217 7.08117 4.22217 7.59253C4.22217 8.1039 4.61598 8.51844 5.10178 8.51844Z" fill="white"></path><path d="M8.97214 8.51844C9.45794 8.51844 9.85176 8.1039 9.85176 7.59253C9.85176 7.08117 9.45794 6.66663 8.97214 6.66663C8.48635 6.66663 8.09253 7.08117 8.09253 7.59253C8.09253 8.1039 8.48635 8.51844 8.97214 8.51844Z" fill="white"></path><path d="M12.8425 8.51844C13.3283 8.51844 13.7221 8.1039 13.7221 7.59253C13.7221 7.08117 13.3283 6.66663 12.8425 6.66663C12.3567 6.66663 11.9629 7.08117 11.9629 7.59253C11.9629 8.1039 12.3567 8.51844 12.8425 8.51844Z" fill="white"></path><path d="M5.10178 12.2222C5.58758 12.2222 5.98139 11.8076 5.98139 11.2963C5.98139 10.7849 5.58758 10.3704 5.10178 10.3704C4.61598 10.3704 4.22217 10.7849 4.22217 11.2963C4.22217 11.8076 4.61598 12.2222 5.10178 12.2222Z" fill="white"></path><path d="M8.97214 12.2222C9.45794 12.2222 9.85176 11.8076 9.85176 11.2963C9.85176 10.7849 9.45794 10.3704 8.97214 10.3704C8.48635 10.3704 8.09253 10.7849 8.09253 11.2963C8.09253 11.8076 8.48635 12.2222 8.97214 12.2222Z" fill="white"></path><path d="M12.8425 12.2222C13.3283 12.2222 13.7221 11.8076 13.7221 11.2963C13.7221 10.7849 13.3283 10.3704 12.8425 10.3704C12.3567 10.3704 11.9629 10.7849 11.9629 11.2963C11.9629 11.8076 12.3567 12.2222 12.8425 12.2222Z" fill="white"></path><path d="M5.10178 15.9259C5.58758 15.9259 5.98139 15.5114 5.98139 15C5.98139 14.4886 5.58758 14.0741 5.10178 14.0741C4.61598 14.0741 4.22217 14.4886 4.22217 15C4.22217 15.5114 4.61598 15.9259 5.10178 15.9259Z" fill="white"></path><path d="M8.97214 15.9259C9.45794 15.9259 9.85176 15.5114 9.85176 15C9.85176 14.4886 9.45794 14.0741 8.97214 14.0741C8.48635 14.0741 8.09253 14.4886 8.09253 15C8.09253 15.5114 8.48635 15.9259 8.97214 15.9259Z" fill="white"></path></svg>