<svg xmlns="http://www.w3.org/2000/svg" width="21" height="18" viewBox="0 0 21 18" fill="none"><path d="M5.39586 11.3279L6.2232 11.6131C7.82606 12.1658 7.87754 14.4423 6.26613 15.0455C6.26613 15.4783 5.94275 15.7521 5.58871 15.7521C5.23823 15.7521 4.91129 15.4824 4.91129 15.0455C4.21922 14.7864 3.72509 14.1185 3.72509 13.3371C3.72509 12.9629 4.02836 12.6597 4.40251 12.6597C4.77665 12.6597 5.07993 12.9629 5.07993 13.3371C5.07993 13.5955 5.29022 13.8058 5.54866 13.8058H5.62872C6.15762 13.8058 6.27777 13.0651 5.78152 12.8939L4.95418 12.6087C3.35136 12.0561 3.29988 9.7795 4.91129 9.17635C4.91129 8.74356 5.23467 8.4698 5.58871 8.4698C5.93919 8.4698 6.26613 8.73945 6.26613 9.17635C6.9582 9.43542 7.45233 10.1034 7.45233 10.8848C7.45233 11.2589 7.14906 11.5622 6.77491 11.5622C6.40077 11.5622 6.09749 11.2589 6.09749 10.8848C6.09749 10.6263 5.8872 10.416 5.62876 10.416H5.5487C5.0198 10.416 4.89965 11.1567 5.39586 11.3279ZM11.1774 12.1109C11.1774 15.1925 8.67033 17.6996 5.58871 17.6996C2.50709 17.6996 0 15.1926 0 12.1109C0 9.02926 2.50709 6.52222 5.58871 6.52222C8.67033 6.52222 11.1774 9.0293 11.1774 12.1109ZM9.82258 12.1109C9.82258 9.77633 7.92331 7.87706 5.58871 7.87706C3.25411 7.87706 1.35484 9.77633 1.35484 12.1109C1.35484 14.4455 3.25411 16.3448 5.58871 16.3448C7.92331 16.3448 9.82258 14.4455 9.82258 12.1109ZM20.3226 16.3448H19.8569V5.16738C19.8569 4.79323 19.5536 4.48996 19.1794 4.48996C18.8053 4.48996 18.502 4.79323 18.502 5.16738V16.3448H15.0726V7.87706C15.0726 7.50291 14.7693 7.19964 14.3952 7.19964C14.021 7.19964 13.7177 7.50291 13.7177 7.87706V16.3448H10.8387C10.4646 16.3448 10.1613 16.6481 10.1613 17.0222C10.1613 17.3964 10.4646 17.6996 10.8387 17.6996H20.3226C20.6967 17.6996 21 17.3964 21 17.0222C21 16.6481 20.6967 16.3448 20.3226 16.3448ZM10.4286 7.29761L12.8498 4.87643L13.9162 5.94277C14.1807 6.2073 14.6096 6.2073 14.8742 5.94277L18.502 2.31489V2.62705C18.502 3.0012 18.8053 3.30447 19.1794 3.30447C19.5536 3.30447 19.8569 3.0012 19.8569 2.62705C19.8569 0.477264 19.8601 0.659744 19.8494 0.583873C19.8165 0.352746 19.6647 0.147234 19.4384 0.053581C19.2709 -0.0157698 19.3228 0.00205463 17.2319 0.00205463C16.8577 0.00205463 16.5544 0.305327 16.5544 0.679474C16.5544 1.05362 16.8577 1.35689 17.2319 1.35689H17.544L14.3952 4.50571L13.3288 3.43937C13.0642 3.17483 12.6353 3.17483 12.3708 3.43937L9.47058 6.33957C9.206 6.6041 9.206 7.03303 9.47058 7.29757C9.73519 7.56218 10.164 7.56214 10.4286 7.29761Z" fill="white"></path></svg>