<svg xmlns="http://www.w3.org/2000/svg" width="21" height="21" viewBox="0 0 21 21" fill="none"><path d="M18.0002 20.6251C17.5861 20.6251 17.2502 20.2953 17.2502 19.8885V9.576H12.7502C12.3361 9.576 12.0002 9.24615 12.0002 8.83939C12.0002 8.43264 12.3361 8.10278 12.7502 8.10278H18.0002C18.4144 8.10278 18.7502 8.43264 18.7502 8.83939V19.8885C18.7502 20.2953 18.4144 20.6251 18.0002 20.6251Z" fill="white"></path><path d="M6 20.6249C5.58585 20.6249 5.25 20.295 5.25 19.8883V13.2588C5.25 12.8521 5.58585 12.5222 6 12.5222C6.41415 12.5222 6.75 12.8521 6.75 13.2588V19.8883C6.75 20.295 6.41415 20.6249 6 20.6249Z" fill="white"></path><path d="M20.25 19.1518C19.8358 19.1518 19.5 18.8219 19.5 18.4151V7.36604H13.5C13.0858 7.36604 12.75 7.03618 12.75 6.62943C12.75 6.22267 13.0858 5.89282 13.5 5.89282H20.25C20.6641 5.89282 21 6.22267 21 6.62943V18.4151C21 18.8219 20.6641 19.1518 20.25 19.1518Z" fill="white"></path><path d="M15 12.5223H10.5C10.0858 12.5223 9.75 12.1924 9.75 11.7857C9.75 11.3789 10.0858 11.0491 10.5 11.0491H15C15.4141 11.0491 15.75 11.3789 15.75 11.7857C15.75 12.1924 15.4141 12.5223 15 12.5223Z" fill="white"></path><path d="M15 15.4688H9C8.58585 15.4688 8.25 15.139 8.25 14.7322C8.25 14.3255 8.58585 13.9956 9 13.9956H15C15.4141 13.9956 15.75 14.3255 15.75 14.7322C15.75 15.139 15.4141 15.4688 15 15.4688Z" fill="white"></path><path d="M15 18.4151H9C8.58585 18.4151 8.25 18.0853 8.25 17.6785C8.25 17.2717 8.58585 16.9419 9 16.9419H15C15.4141 16.9419 15.75 17.2717 15.75 17.6785C15.75 18.0853 15.4141 18.4151 15 18.4151Z" fill="white"></path><path d="M5.99999 11.7857C2.69167 11.7857 0 9.14211 0 5.89286C0 5.4861 0.335849 5.15625 0.749999 5.15625C1.16415 5.15625 1.5 5.4861 1.5 5.89286C1.5 8.33 3.51854 10.3125 5.99999 10.3125C8.48144 10.3125 10.5 8.33 10.5 5.89286C10.5 3.45572 8.48144 1.47321 5.99999 1.47321C4.52969 1.47321 3.14865 2.18139 2.3064 3.36762C2.06985 3.70138 1.60147 3.78447 1.26232 3.55067C0.922499 3.31797 0.839024 2.8587 1.07595 2.52524C2.1987 0.943815 4.03927 0 5.99999 0C9.30831 0 12 2.64361 12 5.89286C12 9.14211 9.30831 11.7857 5.99999 11.7857Z" fill="white"></path><path d="M6 6.62957H3.75C3.33585 6.62957 3 6.29972 3 5.89296C3 5.48621 3.33585 5.15635 3.75 5.15635H5.25V3.68314C5.25 3.27639 5.58585 2.94653 6 2.94653C6.41414 2.94653 6.74999 3.27639 6.74999 3.68314V5.89296C6.74999 6.29972 6.41414 6.62957 6 6.62957Z" fill="white"></path><path d="M3 3.683H1.5C1.08585 3.683 0.75 3.35315 0.75 2.94639V1.47318C0.75 1.06642 1.08585 0.736572 1.5 0.736572C1.91415 0.736572 2.25 1.06642 2.25 1.47318V2.20979H3C3.41415 2.20979 3.75 2.53964 3.75 2.94639C3.75 3.35315 3.41415 3.683 3 3.683Z" fill="white"></path></svg>