<svg xmlns="http://www.w3.org/2000/svg" width="20" height="16" viewBox="0 0 20 16" fill="none"><path d="M18.1 8.72H1.9H1.82C1.64667 8.72 1.5 8.79333 1.38 8.94C1.26 9.07333 1.2 9.23333 1.2 9.42V10.88C1.2 11.04 1.25333 11.1867 1.36 11.32C1.48 11.4933 1.66667 11.58 1.92 11.58H18.18C18.3267 11.58 18.4467 11.5333 18.54 11.44C18.6467 11.3333 18.7333 11.1867 18.8 11V9.3C18.7867 9.3 18.78 9.29333 18.78 9.28C18.7267 9.08 18.6467 8.94 18.54 8.86C18.4333 8.76667 18.2867 8.72 18.1 8.72ZM19.68 0.259999C19.5867 0.206666 19.4733 0.166666 19.34 0.139999H0.66L0.62 0.159999C0.433333 0.186666 0.28 0.266666 0.16 0.4C0.0533333 0.533333 0 0.699999 0 0.899999V2.26C0 2.34 0.00666667 2.39333 0.02 2.42C0.0466667 2.58 0.126667 2.72 0.26 2.84C0.393333 2.94667 0.553333 3 0.74 3H19.3C19.4467 3 19.5867 2.94667 19.72 2.84C19.8267 2.77333 19.92 2.63333 20 2.42V0.739999C19.9333 0.539999 19.8267 0.379999 19.68 0.259999ZM5.98 7.3H13.66H14.04C14.12 7.3 14.1867 7.24 14.24 7.12C14.2667 7.06667 14.3 6.96667 14.34 6.82L14.36 6.7V5.02C14.3467 5.02 14.34 5.01333 14.34 5C14.3133 4.8 14.2733 4.66 14.22 4.58C14.1667 4.48667 14.0933 4.44 14 4.44H5.94C5.86 4.45333 5.79333 4.53333 5.74 4.68C5.68667 4.81333 5.66 4.97333 5.66 5.16V6.72C5.68667 6.89333 5.72667 7.03333 5.78 7.14C5.83333 7.24667 5.9 7.3 5.98 7.3ZM15.46 13H4.5H4.44C4.32 13.0133 4.21333 13.0933 4.12 13.24C4.04 13.3733 4 13.54 4 13.74V15.14C4 15.3267 4.04 15.4933 4.12 15.64C4.2 15.7867 4.32667 15.86 4.5 15.86H15.58C15.6467 15.86 15.7 15.84 15.74 15.8C15.7933 15.76 15.8467 15.7 15.9 15.62L16 15.28V13.6C15.9333 13.36 15.8667 13.2 15.8 13.12C15.7333 13.04 15.62 13 15.46 13Z" fill="#9E9E9E"></path></svg>