<svg xmlns="http://www.w3.org/2000/svg" width="18" height="18" viewBox="0 0 18 18" fill="none"><path d="M9 0.239999C7.41333 0.239999 5.94 0.639999 4.58 1.44C3.26 2.21333 2.22 3.26 1.46 4.58C0.66 5.94 0.26 7.41333 0.26 9C0.26 10.5867 0.66 12.06 1.46 13.42C2.22 14.74 3.26 15.7867 4.58 16.56C5.94 17.36 7.41333 17.76 9 17.76C10.5867 17.76 12.06 17.36 13.42 16.56C14.74 15.7867 15.7867 14.74 16.56 13.42C17.36 12.06 17.76 10.5867 17.76 9C17.76 7.41333 17.36 5.94 16.56 4.58C15.7867 3.26 14.74 2.21333 13.42 1.44C12.06 0.639999 10.5867 0.239999 9 0.239999ZM7.7 3.58C7.72667 3.58 7.77333 3.57333 7.84 3.56C8.01333 3.53333 8.14 3.52 8.22 3.52C8.35333 3.50667 8.52667 3.5 8.74 3.5C8.96667 3.5 9.14667 3.50667 9.28 3.52C9.36 3.52 9.48667 3.53333 9.66 3.56L9.8 3.58C9.84 3.74 9.86 3.90667 9.86 4.08L9.88 4.56L9.86 5.06C9.86 5.20667 9.84 5.37333 9.8 5.56C9.58667 5.58667 9.41333 5.60667 9.28 5.62C9.16 5.62 8.98667 5.62 8.76 5.62C8.53333 5.62 8.36 5.61333 8.24 5.6C8.09333 5.6 7.91333 5.58667 7.7 5.56C7.64667 5.25333 7.62 4.92667 7.62 4.58C7.62 4.22 7.64667 3.88667 7.7 3.58ZM10.96 14.5H7.04C6.98667 14.2733 6.96 14.0133 6.96 13.72C6.96 13.5467 6.96667 13.4133 6.98 13.32C6.98 13.2533 6.99333 13.1533 7.02 13.02L7.04 12.92H8V8.4H7.04L7.02 8.3C6.99333 8.16667 6.98 8.06667 6.98 8C6.96667 7.90667 6.96 7.77333 6.96 7.6C6.96 7.30667 6.98667 7.04667 7.04 6.82H10V12.92H10.96C11 13.04 11.02 13.1733 11.02 13.32C11.0333 13.4133 11.04 13.5467 11.04 13.72C11.04 14.0133 11.0133 14.2733 10.96 14.5Z" fill="#9E9E9E"></path></svg>