<svg xmlns="http://www.w3.org/2000/svg" width="20" height="22" viewBox="0 0 20 22" fill="none"><path d="M3.22 8.86C3.36667 8.98 3.58667 9.16 3.88 9.4L4.42 9.84L5.66 8.82L8.88 6.1C9.29333 5.75333 9.67333 5.5 10.02 5.34C10.4467 5.14 10.8867 5.04667 11.34 5.06C11.9667 5.06 12.5133 5.25333 12.98 5.64C13.9 6.37333 15.2733 7.49333 17.1 9L19.16 10.68C19.2533 10.7733 19.3 10.8533 19.3 10.92C19.3133 11.1333 19.32 11.4867 19.32 11.98C19.0933 11.8067 18.8533 11.62 18.6 11.42C17.5733 10.5667 16.02 9.28667 13.94 7.58C13.34 7.08667 12.7467 6.84667 12.16 6.86C11.5733 6.86 10.9867 7.10667 10.4 7.6L6.48 10.88C6.4 10.9467 6.28667 11.0533 6.14 11.2C6.62 11.7867 7.15333 11.8467 7.74 11.38L10.6 8.96C11.0933 8.54667 11.5533 8.34 11.98 8.34C12.4067 8.34 12.8667 8.54 13.36 8.94L18.96 13.5L19.1 13.62C19.22 13.7267 19.32 13.8133 19.4 13.88L18.6 14.58L12.42 19.76C12.2467 19.9067 11.9733 20.1133 11.6 20.38C10.9467 20.8067 10.34 21.0133 9.78 21C9.22 20.9867 8.62667 20.7533 8 20.3C7.50667 19.9267 6.79333 19.3467 5.86 18.56L1.08 14.66C0.946667 14.5533 0.846667 14.44 0.78 14.32C0.726667 14.2 0.706667 14.0667 0.72 13.92C0.733333 13.76 0.733333 13.52 0.72 13.2V12.76L0.86 12.86C0.953333 12.9267 1.02 12.98 1.06 13.02L6.94 17.72C7.66 18.3067 8.33333 18.6 8.96 18.6C9.6 18.6133 10.28 18.32 11 17.72C11.6267 17.2 12.5667 16.4 13.82 15.32L16.78 12.8L15.62 11.82C15.1 12.2467 14.3267 12.8933 13.3 13.76L11.72 15.08L11.14 15.54C10.6333 15.9533 10.2467 16.26 9.98 16.46C9.59333 16.74 9.19333 16.88 8.78 16.88C8.36667 16.88 7.97333 16.7333 7.6 16.44C6.76 15.8 5.51333 14.8133 3.86 13.48L2.86 12.68C2.14 12.08 1.59333 11.64 1.22 11.36C1.02 11.2 0.873333 11.04 0.78 10.88C0.7 10.7067 0.68 10.5067 0.72 10.28C0.733333 10.2267 0.733333 10.1333 0.72 10V9.82C0.853333 9.88667 0.94 9.93333 0.98 9.96L2.5 11.18C3.99333 12.3933 5.12 13.3 5.88 13.9C6.25333 14.2067 6.58667 14.4533 6.88 14.64C7.26667 14.8933 7.65333 15.0067 8.04 14.98C8.42667 14.9533 8.79333 14.7933 9.14 14.5L10.44 13.42C11.72 12.3533 12.68 11.56 13.32 11.04L13.9 10.54C13.42 9.92667 12.8867 9.86 12.3 10.34L9.3 12.82C8.96667 13.1 8.67333 13.2867 8.42 13.38C8.16667 13.46 7.91333 13.46 7.66 13.38C7.42 13.3 7.12667 13.12 6.78 12.84L0.92 8.06C0.786667 7.95333 0.68 7.86 0.6 7.78C0.92 7.52667 1.38667 7.14 2 6.62L2.8 5.94C3.81333 5.08667 5.33333 3.82 7.36 2.14C7.84 1.75333 8.30667 1.46667 8.76 1.28C9.28 1.06667 9.81333 0.973332 10.36 1C11.24 1.05333 12.1133 1.43333 12.98 2.14L13.48 2.54C15.96 4.59333 17.82 6.14 19.06 7.18C19.1267 7.23333 19.18 7.31333 19.22 7.42C19.2733 7.52667 19.3067 7.62667 19.32 7.72C19.3333 7.88 19.3333 8.14 19.32 8.5V9L19.26 8.96C18.8467 8.62667 18.5533 8.38667 18.38 8.24L13.06 3.88C12.7533 3.62667 12.4667 3.43333 12.2 3.3C11.88 3.14 11.5533 3.05333 11.22 3.04C10.5133 3 9.84667 3.25333 9.22 3.8C8.24667 4.6 6.79333 5.81333 4.86 7.44L3.32 8.72L3.22 8.86Z" fill="#9E9E9E"></path></svg>