<svg xmlns="http://www.w3.org/2000/svg" width="18" height="18" viewBox="0 0 18 18" fill="none"><path d="M8.66 13.38C8.75333 13.4733 8.86667 13.52 9 13.52C9.14667 13.52 9.26667 13.4733 9.36 13.38L15.24 7.68C15.3333 7.57333 15.38 7.46 15.38 7.34C15.38 7.20667 15.3333 7.09333 15.24 7L14.06 5.86C13.9667 5.75333 13.8533 5.7 13.72 5.7C13.5867 5.7 13.4667 5.75333 13.36 5.86L10.58 8.56V1.28C10.58 1.14667 10.5267 1.03333 10.42 0.94C10.3267 0.846666 10.2133 0.799999 10.08 0.799999H8.12C7.98667 0.799999 7.86667 0.846666 7.76 0.94C7.66667 1.03333 7.62 1.14667 7.62 1.28V8.76L4.64 5.86C4.54667 5.75333 4.43333 5.7 4.3 5.7C4.16667 5.7 4.04667 5.75333 3.94 5.86L2.76 7C2.66667 7.09333 2.62 7.20667 2.62 7.34C2.62 7.46 2.66667 7.57333 2.76 7.68L8.66 13.38ZM15.32 10.64V14.76H2.68V10.64H0.26V15.98C0.26 16.3133 0.373333 16.6 0.6 16.84C0.84 17.08 1.12667 17.2 1.46 17.2H16.54C16.8733 17.2 17.1533 17.08 17.38 16.84C17.62 16.6 17.74 16.3133 17.74 15.98V10.64H15.32Z" fill="#9E9E9E"></path></svg>