<svg xmlns="http://www.w3.org/2000/svg" width="132" height="42" viewBox="0 0 132 42" fill="none"><path d="M54.832 27.0239H46.684L45.284 30.9999H41.952L48.924 11.5119H52.62L59.592 30.9999H56.232L54.832 27.0239ZM53.936 24.4199L50.772 15.3759L47.58 24.4199H53.936ZM65.8154 17.8399C66.3568 17.1306 67.0941 16.5333 68.0274 16.0479C68.9608 15.5626 70.0154 15.3199 71.1914 15.3199C72.5354 15.3199 73.7581 15.6559 74.8594 16.3279C75.9794 16.9813 76.8568 17.9053 77.4914 19.0999C78.1261 20.2946 78.4434 21.6666 78.4434 23.2159C78.4434 24.7653 78.1261 26.1559 77.4914 27.3879C76.8568 28.6013 75.9794 29.5533 74.8594 30.2439C73.7581 30.9159 72.5354 31.2519 71.1914 31.2519C70.0154 31.2519 68.9701 31.0186 68.0554 30.5519C67.1408 30.0666 66.3941 29.4693 65.8154 28.7599V38.3359H62.6234V15.5719H65.8154V17.8399ZM75.1954 23.2159C75.1954 22.1519 74.9714 21.2373 74.5234 20.4719C74.0941 19.6879 73.5154 19.0999 72.7874 18.7079C72.0781 18.2973 71.3128 18.0919 70.4914 18.0919C69.6888 18.0919 68.9234 18.2973 68.1954 18.7079C67.4861 19.1186 66.9074 19.7159 66.4594 20.4999C66.0301 21.2839 65.8154 22.2079 65.8154 23.2719C65.8154 24.3359 66.0301 25.2693 66.4594 26.0719C66.9074 26.8559 67.4861 27.4533 68.1954 27.8639C68.9234 28.2746 69.6888 28.4799 70.4914 28.4799C71.3128 28.4799 72.0781 28.2746 72.7874 27.8639C73.5154 27.4346 74.0941 26.8186 74.5234 26.0159C74.9714 25.2133 75.1954 24.2799 75.1954 23.2159ZM84.792 17.8399C85.3333 17.1306 86.0707 16.5333 87.004 16.0479C87.9373 15.5626 88.992 15.3199 90.168 15.3199C91.512 15.3199 92.7347 15.6559 93.836 16.3279C94.956 16.9813 95.8333 17.9053 96.468 19.0999C97.1027 20.2946 97.42 21.6666 97.42 23.2159C97.42 24.7653 97.1027 26.1559 96.468 27.3879C95.8333 28.6013 94.956 29.5533 93.836 30.2439C92.7347 30.9159 91.512 31.2519 90.168 31.2519C88.992 31.2519 87.9467 31.0186 87.032 30.5519C86.1173 30.0666 85.3707 29.4693 84.792 28.7599V38.3359H81.6V15.5719H84.792V17.8399ZM94.172 23.2159C94.172 22.1519 93.948 21.2373 93.5 20.4719C93.0707 19.6879 92.492 19.0999 91.764 18.7079C91.0547 18.2973 90.2893 18.0919 89.468 18.0919C88.6653 18.0919 87.9 18.2973 87.172 18.7079C86.4627 19.1186 85.884 19.7159 85.436 20.4999C85.0067 21.2839 84.792 22.2079 84.792 23.2719C84.792 24.3359 85.0067 25.2693 85.436 26.0719C85.884 26.8559 86.4627 27.4533 87.172 27.8639C87.9 28.2746 88.6653 28.4799 89.468 28.4799C90.2893 28.4799 91.0547 28.2746 91.764 27.8639C92.492 27.4346 93.0707 26.8186 93.5 26.0159C93.948 25.2133 94.172 24.2799 94.172 23.2159ZM102.201 13.5279C101.622 13.5279 101.137 13.3319 100.745 12.9399C100.353 12.5479 100.157 12.0626 100.157 11.4839C100.157 10.9053 100.353 10.4199 100.745 10.0279C101.137 9.63594 101.622 9.43994 102.201 9.43994C102.761 9.43994 103.237 9.63594 103.629 10.0279C104.021 10.4199 104.217 10.9053 104.217 11.4839C104.217 12.0626 104.021 12.5479 103.629 12.9399C103.237 13.3319 102.761 13.5279 102.201 13.5279ZM103.769 15.5719V30.9999H100.577V15.5719H103.769ZM111.151 10.2799V30.9999H107.959V10.2799H111.151ZM122.034 31.2519C120.578 31.2519 119.262 30.9253 118.086 30.2719C116.91 29.5999 115.986 28.6666 115.314 27.4719C114.642 26.2586 114.306 24.8586 114.306 23.2719C114.306 21.7039 114.652 20.3133 115.342 19.0999C116.033 17.8866 116.976 16.9533 118.17 16.2999C119.365 15.6466 120.7 15.3199 122.174 15.3199C123.649 15.3199 124.984 15.6466 126.178 16.2999C127.373 16.9533 128.316 17.8866 129.006 19.0999C129.697 20.3133 130.042 21.7039 130.042 23.2719C130.042 24.8399 129.688 26.2306 128.978 27.4439C128.269 28.6573 127.298 29.5999 126.066 30.2719C124.853 30.9253 123.509 31.2519 122.034 31.2519ZM122.034 28.4799C122.856 28.4799 123.621 28.2839 124.33 27.8919C125.058 27.4999 125.646 26.9119 126.094 26.1279C126.542 25.3439 126.766 24.3919 126.766 23.2719C126.766 22.1519 126.552 21.2093 126.122 20.4439C125.693 19.6599 125.124 19.0719 124.414 18.6799C123.705 18.2879 122.94 18.0919 122.118 18.0919C121.297 18.0919 120.532 18.2879 119.822 18.6799C119.132 19.0719 118.581 19.6599 118.17 20.4439C117.76 21.2093 117.554 22.1519 117.554 23.2719C117.554 24.9333 117.974 26.2213 118.814 27.1359C119.673 28.0319 120.746 28.4799 122.034 28.4799Z" fill="black"></path><path d="M17.459 3.99994L2.79544 17.3528C1.90919 18.1598 1.20616 19.1179 0.72652 20.1724C0.246874 21.2269 0 22.3572 0 23.4986C0 24.64 0.246874 25.7702 0.72652 26.8247C1.20616 27.8792 1.90919 28.8374 2.79544 29.6444L3.05774 29.8833C3.92482 30.6718 5.10005 31.1147 6.32536 31.1147C7.55067 31.1147 8.7259 30.6718 9.59298 29.8833L15.9985 24.0468L15.7362 23.7953C15.3072 23.4043 14.7978 23.0941 14.2371 22.8824C13.6765 22.6708 13.0755 22.5618 12.4686 22.5618C11.8616 22.5618 11.2606 22.6708 10.7 22.8824C10.1393 23.0941 9.6299 23.4043 9.20093 23.7953L17.459 16.274C19.243 14.6448 20.2448 12.4378 20.2448 10.137C20.2448 7.83607 19.243 5.62908 17.459 3.99994Z" fill="#FFB000"></path><path d="M29.2059 14.3003L28.9299 14.0615C28.5012 13.6705 27.992 13.3603 27.4316 13.1487C26.8712 12.9371 26.2705 12.8282 25.6639 12.8282C25.0572 12.8282 24.4565 12.9371 23.8961 13.1487C23.3357 13.3603 22.8266 13.6705 22.3978 14.0615L15.8187 20.0554L16.0809 20.2942C16.5097 20.6852 17.0188 20.9954 17.5792 21.207C18.1396 21.4186 18.7403 21.5275 19.347 21.5275C19.9536 21.5275 20.5543 21.4186 21.1147 21.207C21.6751 20.9954 22.1843 20.6852 22.613 20.2942L14.5493 27.6534C13.6635 28.4603 12.9608 29.4182 12.4814 30.4726C12.0019 31.5269 11.7552 32.6569 11.7552 33.7982C11.7552 34.9394 12.0019 36.0694 12.4814 37.1238C12.9608 38.1781 13.6635 39.1361 14.5493 39.943L29.2059 26.5899C30.0917 25.783 30.7944 24.825 31.2738 23.7707C31.7532 22.7164 32 21.5863 32 20.4451C32 19.3039 31.7532 18.1738 31.2738 17.1195C30.7944 16.0652 30.0917 15.1072 29.2059 14.3003Z" fill="#5F2DED"></path></svg>