<svg xmlns="http://www.w3.org/2000/svg" width="126" height="39" viewBox="0 0 126 39" fill="none"><path d="M51.268 12.04L44.968 27.16C44.856 27.4587 44.688 27.692 44.464 27.86C44.24 28.028 43.988 28.112 43.708 28.112C43.2973 28.112 42.9893 28 42.784 27.776C42.5787 27.5333 42.4667 27.2347 42.448 26.88C42.448 26.7493 42.476 26.6 42.532 26.432L49.644 9.24C49.7747 8.92267 49.9613 8.68 50.204 8.512C50.4653 8.344 50.7453 8.26933 51.044 8.288C51.324 8.288 51.5853 8.372 51.828 8.54C52.0707 8.708 52.248 8.94133 52.36 9.24L59.388 26.18C59.4627 26.3667 59.5 26.5533 59.5 26.74C59.5 27.1507 59.36 27.4867 59.08 27.748C58.8187 27.9907 58.52 28.112 58.184 28.112C57.904 28.112 57.6427 28.028 57.4 27.86C57.176 27.6733 57.008 27.44 56.896 27.16L50.54 12.124L51.268 12.04ZM46.088 23.184L47.348 20.496H55.272L55.748 23.184H46.088ZM69.3448 13.02C70.6515 13.02 71.8088 13.3467 72.8168 14C73.8435 14.6533 74.6555 15.5493 75.2528 16.688C75.8502 17.808 76.1488 19.1147 76.1488 20.608C76.1488 22.1013 75.8502 23.4267 75.2528 24.584C74.6555 25.7227 73.8528 26.6187 72.8448 27.272C71.8368 27.9253 70.6982 28.252 69.4288 28.252C68.7195 28.252 68.0475 28.14 67.4128 27.916C66.7782 27.692 66.2182 27.4027 65.7328 27.048C65.2475 26.6747 64.8462 26.2827 64.5288 25.872C64.2302 25.4613 64.0435 25.0787 63.9688 24.724L64.7248 24.36V32.172C64.7248 32.5827 64.5848 32.9187 64.3048 33.18C64.0435 33.46 63.7168 33.6 63.3248 33.6C62.9142 33.6 62.5782 33.46 62.3168 33.18C62.0555 32.9187 61.9248 32.5827 61.9248 32.172V14.644C61.9248 14.252 62.0555 13.916 62.3168 13.636C62.5782 13.356 62.9142 13.216 63.3248 13.216C63.7168 13.216 64.0435 13.356 64.3048 13.636C64.5848 13.916 64.7248 14.252 64.7248 14.644V16.576L64.2768 16.324C64.3328 15.9693 64.5102 15.6053 64.8088 15.232C65.1075 14.84 65.4808 14.476 65.9288 14.14C66.3955 13.804 66.9182 13.5333 67.4968 13.328C68.0942 13.1227 68.7102 13.02 69.3448 13.02ZM69.0368 15.596C68.1408 15.596 67.3568 15.82 66.6848 16.268C66.0315 16.6973 65.5182 17.2853 65.1448 18.032C64.7715 18.7787 64.5848 19.6373 64.5848 20.608C64.5848 21.56 64.7715 22.428 65.1448 23.212C65.5182 23.9773 66.0315 24.584 66.6848 25.032C67.3568 25.4613 68.1408 25.676 69.0368 25.676C69.9142 25.676 70.6795 25.4613 71.3328 25.032C71.9862 24.584 72.4995 23.9773 72.8728 23.212C73.2648 22.428 73.4608 21.56 73.4608 20.608C73.4608 19.656 73.2648 18.8067 72.8728 18.06C72.4995 17.2947 71.9862 16.6973 71.3328 16.268C70.6795 15.82 69.9142 15.596 69.0368 15.596ZM86.7355 13.02C88.0421 13.02 89.1995 13.3467 90.2075 14C91.2341 14.6533 92.0461 15.5493 92.6435 16.688C93.2408 17.808 93.5395 19.1147 93.5395 20.608C93.5395 22.1013 93.2408 23.4267 92.6435 24.584C92.0461 25.7227 91.2435 26.6187 90.2355 27.272C89.2275 27.9253 88.0888 28.252 86.8195 28.252C86.1101 28.252 85.4381 28.14 84.8035 27.916C84.1688 27.692 83.6088 27.4027 83.1235 27.048C82.6381 26.6747 82.2368 26.2827 81.9195 25.872C81.6208 25.4613 81.4341 25.0787 81.3595 24.724L82.1155 24.36V32.172C82.1155 32.5827 81.9755 32.9187 81.6955 33.18C81.4341 33.46 81.1075 33.6 80.7155 33.6C80.3048 33.6 79.9688 33.46 79.7075 33.18C79.4461 32.9187 79.3155 32.5827 79.3155 32.172V14.644C79.3155 14.252 79.4461 13.916 79.7075 13.636C79.9688 13.356 80.3048 13.216 80.7155 13.216C81.1075 13.216 81.4341 13.356 81.6955 13.636C81.9755 13.916 82.1155 14.252 82.1155 14.644V16.576L81.6675 16.324C81.7235 15.9693 81.9008 15.6053 82.1995 15.232C82.4981 14.84 82.8715 14.476 83.3195 14.14C83.7861 13.804 84.3088 13.5333 84.8875 13.328C85.4848 13.1227 86.1008 13.02 86.7355 13.02ZM86.4275 15.596C85.5315 15.596 84.7475 15.82 84.0755 16.268C83.4221 16.6973 82.9088 17.2853 82.5355 18.032C82.1621 18.7787 81.9755 19.6373 81.9755 20.608C81.9755 21.56 82.1621 22.428 82.5355 23.212C82.9088 23.9773 83.4221 24.584 84.0755 25.032C84.7475 25.4613 85.5315 25.676 86.4275 25.676C87.3048 25.676 88.0701 25.4613 88.7235 25.032C89.3768 24.584 89.8901 23.9773 90.2635 23.212C90.6555 22.428 90.8515 21.56 90.8515 20.608C90.8515 19.656 90.6555 18.8067 90.2635 18.06C89.8901 17.2947 89.3768 16.6973 88.7235 16.268C88.0701 15.82 87.3048 15.596 86.4275 15.596ZM99.3381 26.572C99.3381 26.9827 99.2074 27.328 98.9461 27.608C98.6848 27.8693 98.3488 28 97.9381 28C97.5461 28 97.2101 27.8693 96.9301 27.608C96.6688 27.328 96.5381 26.9827 96.5381 26.572V14.588C96.5381 14.1773 96.6688 13.8413 96.9301 13.58C97.2101 13.3 97.5461 13.16 97.9381 13.16C98.3488 13.16 98.6848 13.3 98.9461 13.58C99.2074 13.8413 99.3381 14.1773 99.3381 14.588V26.572ZM97.9101 11.312C97.3688 11.312 96.9768 11.2187 96.7341 11.032C96.4914 10.8267 96.3701 10.4907 96.3701 10.024V9.576C96.3701 9.10933 96.5008 8.78267 96.7621 8.596C97.0234 8.40933 97.4154 8.316 97.9381 8.316C98.4981 8.316 98.8994 8.41867 99.1421 8.624C99.3848 8.81067 99.5061 9.128 99.5061 9.576V10.024C99.5061 10.5093 99.3754 10.8453 99.1141 11.032C98.8714 11.2187 98.4701 11.312 97.9101 11.312ZM106.129 26.572C106.129 26.9827 105.989 27.328 105.709 27.608C105.447 27.8693 105.121 28 104.729 28C104.337 28 104.001 27.8693 103.721 27.608C103.459 27.328 103.329 26.9827 103.329 26.572V8.708C103.329 8.29733 103.469 7.96133 103.749 7.7C104.029 7.42 104.365 7.28 104.757 7.28C105.167 7.28 105.494 7.42 105.737 7.7C105.998 7.96133 106.129 8.29733 106.129 8.708V26.572ZM124.135 20.636C124.135 22.1293 123.808 23.4547 123.155 24.612C122.501 25.7507 121.615 26.6467 120.495 27.3C119.375 27.9533 118.115 28.28 116.715 28.28C115.315 28.28 114.055 27.9533 112.935 27.3C111.815 26.6467 110.919 25.7507 110.247 24.612C109.593 23.4547 109.267 22.1293 109.267 20.636C109.267 19.124 109.593 17.7987 110.247 16.66C110.919 15.5027 111.815 14.5973 112.935 13.944C114.055 13.272 115.315 12.936 116.715 12.936C118.115 12.936 119.375 13.272 120.495 13.944C121.615 14.5973 122.501 15.5027 123.155 16.66C123.808 17.7987 124.135 19.124 124.135 20.636ZM121.335 20.636C121.335 19.6093 121.129 18.7227 120.719 17.976C120.308 17.2107 119.748 16.6133 119.039 16.184C118.348 15.736 117.573 15.512 116.715 15.512C115.856 15.512 115.072 15.736 114.363 16.184C113.653 16.6133 113.093 17.2107 112.683 17.976C112.272 18.7227 112.067 19.6093 112.067 20.636C112.067 21.6253 112.272 22.5027 112.683 23.268C113.093 24.0333 113.653 24.6307 114.363 25.06C115.072 25.4893 115.856 25.704 116.715 25.704C117.573 25.704 118.348 25.4893 119.039 25.06C119.748 24.6307 120.308 24.0333 120.719 23.268C121.129 22.5027 121.335 21.6253 121.335 20.636Z" fill="white"></path><path d="M17.459 3L2.79544 16.3528C1.90919 17.1598 1.20616 18.118 0.72652 19.1725C0.246874 20.227 0 21.3572 0 22.4986C0 23.6401 0.246874 24.7703 0.72652 25.8248C1.20616 26.8793 1.90919 27.8374 2.79544 28.6445L3.05774 28.8834C3.92482 29.6719 5.10005 30.1148 6.32536 30.1148C7.55067 30.1148 8.7259 29.6719 9.59298 28.8834L15.9985 23.0468L15.7362 22.7954C15.3072 22.4043 14.7978 22.0941 14.2371 21.8825C13.6765 21.6708 13.0755 21.5619 12.4686 21.5619C11.8616 21.5619 11.2606 21.6708 10.7 21.8825C10.1393 22.0941 9.6299 22.4043 9.20093 22.7954L17.459 15.274C19.243 13.6449 20.2448 11.4379 20.2448 9.13702C20.2448 6.83613 19.243 4.62914 17.459 3Z" fill="#FFB000"></path><path d="M29.2058 13.3004L28.9299 13.0615C28.5011 12.6706 27.992 12.3604 27.4315 12.1488C26.8711 11.9372 26.2704 11.8282 25.6638 11.8282C25.0572 11.8282 24.4565 11.9372 23.8961 12.1488C23.3356 12.3604 22.8265 12.6706 22.3977 13.0615L15.8187 19.0555L16.0808 19.2943C16.5096 19.6853 17.0188 19.9954 17.5792 20.2071C18.1396 20.4187 18.7403 20.5276 19.3469 20.5276C19.9536 20.5276 20.5542 20.4187 21.1147 20.2071C21.6751 19.9954 22.1842 19.6853 22.613 19.2943L14.5492 26.6535C13.6634 27.4603 12.9607 28.4183 12.4813 29.4726C12.0019 30.527 11.7551 31.657 11.7551 32.7982C11.7551 33.9395 12.0019 35.0695 12.4813 36.1238C12.9607 37.1782 13.6634 38.1361 14.5492 38.943L29.2058 25.5899C30.0917 24.7831 30.7944 23.8251 31.2738 22.7708C31.7532 21.7164 31.9999 20.5864 31.9999 19.4452C31.9999 18.3039 31.7532 17.1739 31.2738 16.1196C30.7944 15.0652 30.0917 14.1073 29.2058 13.3004Z" fill="#5F2DED"></path></svg>