<svg xmlns="http://www.w3.org/2000/svg" width="25" height="25" viewBox="0 0 25 25" fill="none"><path d="M25 12.5495H20.4365L19.8356 12.0103H15.4346L14.7817 12.5515L12.4453 18.7797L14.7817 24.9969H24.9938V12.5495H25Z" fill="#FBCA14"></path><path d="M10.1166 0.00292969L7.39246 6.60165L10.1166 12.5515H15.9498L20.4279 17.0295V12.5515V0.00292969H10.1166Z" fill="#008475"></path><path d="M10.1167 12.5517V0.00317383H0V12.5517H4.46262L5.14429 13.0797H9.64074L10.1167 12.5516" fill="#00A98F"></path><path d="M14.9302 3.96408L10.1168 8.57818L9.52722 6.92878L10.1168 6.396L10.1215 6.40064L13.8545 2.8374L14.9302 3.96408Z" fill="#E2E8ED"></path><path d="M10.1167 6.39589V8.57807L7.61108 6.09319L8.71281 4.99146L10.1167 6.39589Z" fill="#F2F3F4"></path><path d="M14.7817 12.5515V24.9968H4.46265V8.07129L8.93762 12.5515H14.7817Z" fill="#FED843"></path><path d="M15.5605 18.001V19.5586H14.7817L14.5575 18.7797L14.7817 18.001H15.5605Z" fill="#E2E8ED"></path><path d="M10.8877 18.001H12.4453V19.5586H10.8877V18.001Z" fill="#F2F3F4"></path><path d="M14.0029 18.0012H14.7817V19.5588H14.0029V18.0012Z" fill="#F2F3F4"></path><path d="M17.118 18.0012H18.6756V19.5588H17.118V18.0012Z" fill="#E2E8ED"></path></svg>