<svg xmlns="http://www.w3.org/2000/svg" width="32" height="29" viewBox="0 0 32 29" fill="none"><path d="M18.8862 9.78863V7.32697L16.1674 7.06609C15.9979 6.43607 15.7233 5.84339 15.3614 5.30405L17.0807 3.37691L15.16 1.63623L13.0334 3.19436C12.4383 2.86647 11.7843 2.61765 11.0891 2.46392L10.8013 0H8.08494L7.79706 2.46387C7.10187 2.61753 6.44788 2.86641 5.85275 3.1943L3.72619 1.63618L1.80544 3.37686L3.52475 5.304C3.16294 5.84333 2.88838 6.43607 2.71875 7.06603L0 7.32697V9.78863L2.71875 10.0495C2.88831 10.6795 3.16294 11.2722 3.52475 11.8116L1.80544 13.7387L3.72619 15.4794L5.85269 13.9213C6.44781 14.2492 7.10187 14.498 7.797 14.6517L8.08488 17.1156H10.8012L11.0891 14.6517C11.7843 14.4981 12.4383 14.2492 13.0334 13.9213L15.16 15.4794L17.0807 13.7387L15.3614 11.8116C15.7233 11.2723 15.9978 10.6795 16.1674 10.0496L18.8862 9.78863ZM9.44312 11.4416C7.68569 11.4416 6.26106 10.1505 6.26106 8.55783C6.26106 6.96521 7.68575 5.67409 9.44312 5.67409C11.2005 5.67409 12.6252 6.96521 12.6252 8.55783C12.6252 10.1505 11.2005 11.4416 9.44312 11.4416Z" fill="#FE7858"></path><path d="M18.8862 9.78863V7.32697L16.1674 7.06609C15.9979 6.43607 15.7232 5.84339 15.3614 5.30405L17.0807 3.37691L15.16 1.63618L13.0334 3.1943C12.4383 2.86641 11.7842 2.61759 11.0891 2.46387L10.8012 0H9.44312V5.67409C11.2006 5.67409 12.6252 6.96521 12.6252 8.55783C12.6252 10.1505 11.2005 11.4416 9.44312 11.4416V17.1156H10.8013L11.0892 14.6517C11.7844 14.4981 12.4384 14.2492 13.0335 13.9213L15.1601 15.4794L17.0808 13.7387L15.3615 11.8116C15.7233 11.2723 15.9979 10.6795 16.1675 10.0496L18.8862 9.78863Z" fill="#FD4E26"></path><path d="M32 20.1013V17.1116L28.698 16.7947C28.4921 16.0296 28.1586 15.3097 27.7191 14.6547L29.8072 12.3141L27.4745 10.2001L24.8918 12.0924C24.169 11.6942 23.3747 11.392 22.5304 11.2053L22.1807 8.21289H18.8818L18.5321 11.2053C17.6878 11.392 16.8935 11.6942 16.1707 12.0924L13.588 10.2001L11.2552 12.3141L13.3434 14.6547C12.9039 15.3097 12.5704 16.0296 12.3645 16.7947L9.0625 17.1116V20.1013L12.3645 20.4182C12.5704 21.1833 12.9039 21.9032 13.3434 22.5582L11.2552 24.8988L13.588 27.0128L16.1707 25.1205C16.8935 25.5187 17.6878 25.8209 18.5321 26.0076L18.8818 29H22.1807L22.5304 26.0076C23.3747 25.8209 24.169 25.5187 24.8918 25.1205L27.4745 27.0128L29.8072 24.8988L27.7191 22.5582C28.1586 21.9032 28.4921 21.1833 28.698 20.4182L32 20.1013ZM20.5312 22.1088C18.3969 22.1088 16.6666 20.5408 16.6666 18.6064C16.6666 16.6721 18.3968 15.1041 20.5312 15.1041C22.6657 15.1041 24.3959 16.6721 24.3959 18.6064C24.3959 20.5408 22.6656 22.1088 20.5312 22.1088Z" fill="#81C8EE"></path><path d="M32 20.1013V17.1116L28.6981 16.7947C28.4921 16.0296 28.1586 15.3097 27.7192 14.6547L29.8073 12.3141L27.4746 10.2001L24.8919 12.0924C24.1691 11.6942 23.3747 11.392 22.5304 11.2053L22.1807 8.21289H20.5312V15.1041C22.6656 15.1041 24.3959 16.6721 24.3959 18.6064C24.3959 20.5408 22.6657 22.1088 20.5312 22.1088V29H22.1807L22.5304 26.0076C23.3747 25.8209 24.169 25.5187 24.8918 25.1205L27.4745 27.0128L29.8072 24.8988L27.7191 22.5582C28.1586 21.9032 28.4921 21.1833 28.698 20.4182L32 20.1013Z" fill="#159CE4"></path></svg>