<svg xmlns="http://www.w3.org/2000/svg" width="23" height="18" viewBox="0 0 23 18" fill="none"><path d="M0 10V4.78203C0 2.88846 2.11921 1.34791 4.72406 1.34791H17.3215V0L23 4.12791L17.3215 8.25583V6.90792H5.71885C3.9135 6.90792 2.23781 7.55984 1.2364 8.6518L0 10Z" fill="#7D8AFF"></path><path d="M5.67845 18L0 13.8721L5.67845 9.74417V11.0921H17.2811C19.0865 11.0921 20.7622 10.4402 21.7636 9.3482L23 8V13.218C23 15.1115 20.8808 16.6521 18.2759 16.6521H5.67845V18Z" fill="#FFDC40"></path><path d="M21.8192 9.40242C20.8628 10.5383 19.2624 11.2164 17.5382 11.2164H12V17H18.4883C20.976 17 23 15.3975 23 13.4278V8L21.8192 9.40242Z" fill="#FFAB15"></path><path d="M23 4L17.5601 0V1.30614H12V6.69386H17.5601V8L23 4Z" fill="#6E76E5"></path></svg>