<svg xmlns="http://www.w3.org/2000/svg" width="25" height="25" viewBox="0 0 25 25" fill="none"><path d="M22.0679 6.62739e-08C21.7585 -7.29451e-05 21.4523 0.06018 21.1665 0.177356C20.8807 0.294532 20.621 0.466302 20.4023 0.682885C20.1835 0.899468 20.01 1.15662 19.8916 1.43963C19.7732 1.72264 19.7122 2.02601 19.7122 2.33236C19.7132 2.65443 19.7816 2.97276 19.913 3.26737C17.7596 5.04284 15.8788 6.58688 13.8941 8.18977C13.3913 8.55939 13.9646 9.14566 14.2804 8.92269C16.2168 7.36513 18.5216 5.48766 20.3879 3.96642C20.6071 4.18748 20.8685 4.3631 21.1569 4.48298C21.4454 4.60287 21.755 4.66461 22.0679 4.66467C22.6924 4.6646 23.2913 4.41889 23.7329 3.9815C24.1745 3.54411 24.4226 2.95092 24.4227 2.33236C24.4226 1.7138 24.1745 1.12056 23.7329 0.68317C23.2913 0.245783 22.6924 6.58982e-05 22.0679 6.62739e-08Z" fill="#55A1FF"></path><path d="M4.45124 6.27382C4.03597 6.26291 3.85427 6.90319 4.24876 7.05501C6.28641 7.8468 8.30499 8.63988 10.1424 9.3576C10.1383 9.40904 10.1358 9.46057 10.1351 9.51217C10.1352 10.1307 10.3833 10.724 10.8249 11.1614C11.2665 11.5987 11.8654 11.8445 12.49 11.8445C13.1145 11.8445 13.7134 11.5987 14.155 11.1614C14.5966 10.724 14.8448 10.1307 14.8448 9.51217C14.8448 8.89361 14.5966 8.30042 14.155 7.86303C13.7134 7.42564 13.1145 7.17988 12.49 7.17981C12.0358 7.18021 11.5915 7.31068 11.2105 7.55545C10.8294 7.80023 10.528 8.14887 10.3425 8.55942C8.49604 7.8498 6.41949 7.02806 4.64233 6.32133C4.57446 6.29001 4.51056 6.27533 4.45124 6.27377L4.45124 6.27382Z" fill="#EF6356"></path><path d="M1.24899 11.4788H4.61571C5.30765 11.4788 5.8647 12.0305 5.8647 12.7158V23.5038C5.8647 24.1891 5.30765 24.7408 4.61571 24.7408H1.24899C0.557049 24.7408 0 24.1891 0 23.5038V12.7158C0 12.0305 0.557049 11.4788 1.24899 11.4788Z" fill="#FFC861"></path><path d="M10.8066 15.0623H14.1733C14.8653 15.0623 15.4223 15.614 15.4223 16.2993V23.504C15.4223 24.1893 14.8653 24.741 14.1733 24.741H10.8066C10.1147 24.741 9.55762 24.1893 9.55762 23.504V16.2993C9.55762 15.614 10.1147 15.0623 10.8066 15.0623Z" fill="#EF6356"></path><path d="M20.3845 6.94116H23.7512C24.4431 6.94116 25.0002 7.49285 25.0002 8.17818V23.5038C25.0002 24.1891 24.4431 24.7408 23.7512 24.7408H20.3845C19.6925 24.7408 19.1355 24.1891 19.1355 23.5038V8.17818C19.1355 7.49285 19.6925 6.94116 20.3845 6.94116Z" fill="#55A1FF"></path><path d="M5.28738 6.05281C5.28738 6.35913 5.22646 6.66248 5.1081 6.94549C4.98975 7.22849 4.81627 7.48563 4.59758 7.70224C4.37889 7.91884 4.11926 8.09064 3.83353 8.20786C3.54779 8.32508 3.24154 8.38541 2.93226 8.38541C2.62298 8.38541 2.31673 8.32508 2.031 8.20786C1.74526 8.09064 1.48564 7.91884 1.26694 7.70224C1.04825 7.48563 0.874776 7.22849 0.75642 6.94549C0.638065 6.66248 0.577148 6.35913 0.577148 6.05281C0.577148 5.74649 0.638065 5.44318 0.75642 5.16018C0.874776 4.87718 1.04825 4.62004 1.26694 4.40343C1.48564 4.18683 1.74526 4.01499 2.031 3.89776C2.31673 3.78054 2.62298 3.72021 2.93226 3.72021C3.24154 3.72021 3.54779 3.78054 3.83353 3.89776C4.11926 4.01499 4.37889 4.18683 4.59758 4.40343C4.81627 4.62004 4.98975 4.87718 5.1081 5.16018C5.22646 5.44318 5.28738 5.74649 5.28738 6.05281Z" fill="#FFC861"></path><path d="M19.168 23.4389V23.543C19.168 24.2294 19.7259 24.782 20.4189 24.782H23.2393C23.3386 24.6593 23.4006 24.5111 23.4179 24.3548C23.4351 24.1985 23.407 24.0406 23.3368 23.8995C23.2666 23.7585 23.1572 23.6402 23.0215 23.5586C22.8858 23.4771 22.7294 23.4355 22.5706 23.4389H19.168Z" fill="#488BFF"></path><path d="M9.57495 23.439V23.543C9.57495 23.8862 9.71452 24.1959 9.94063 24.4198C10.1667 24.6438 10.4794 24.782 10.8259 24.782H14.1976C14.5441 24.782 14.8568 24.6438 15.0829 24.4198C15.309 24.1959 15.4486 23.8862 15.4486 23.543V23.439H9.57495Z" fill="#D85750"></path><path d="M2.63651 24.7823H4.62452C4.97104 24.7823 5.28369 24.644 5.5098 24.4201C5.73591 24.1961 5.87548 23.8865 5.87548 23.5433V23.4392H3.28561C3.12854 23.4395 2.97476 23.4838 2.84195 23.5668C2.70914 23.6499 2.6027 23.7684 2.53488 23.9087C2.46707 24.049 2.44063 24.2054 2.45861 24.36C2.47659 24.5145 2.53825 24.6609 2.63651 24.7823Z" fill="#FFAB61"></path></svg>