<svg xmlns="http://www.w3.org/2000/svg" width="24" height="23" viewBox="0 0 24 23" fill="none"><path d="M3.6658 9.77551C3.80198 9.1631 3.99321 8.56197 4.24238 7.98343C4.20472 8.07374 4.16415 8.16405 4.12649 8.25436C4.47128 7.46415 4.91458 6.72192 5.45349 6.04178C5.39265 6.11798 5.3318 6.19417 5.27096 6.27037C5.80408 5.5987 6.42122 4.99757 7.1108 4.47547C7.03257 4.53474 6.95434 4.594 6.87611 4.65327C7.56859 4.13399 8.32771 3.7022 9.13318 3.36918C9.04046 3.40587 8.94775 3.44538 8.85503 3.48207C9.69817 3.13776 10.5819 2.90634 11.4859 2.78781C11.3845 2.80192 11.2802 2.81604 11.1787 2.82732C12.074 2.71444 12.978 2.71444 13.8704 2.83015C13.769 2.81604 13.6647 2.80192 13.5633 2.79064C14.4586 2.90917 15.3336 3.14623 16.1681 3.48771C16.0753 3.45102 15.9826 3.41151 15.8899 3.37483C16.7012 3.71349 17.4661 4.1481 18.1644 4.67585C18.0861 4.61658 18.0079 4.55731 17.9297 4.49805C18.6077 5.01451 19.219 5.60716 19.7463 6.27037C19.6855 6.19417 19.6246 6.11798 19.5638 6.04178C20.0998 6.7191 20.5431 7.46133 20.885 8.24871C20.8473 8.1584 20.8068 8.06809 20.7691 7.97778C21.0009 8.52246 21.1863 9.08408 21.3196 9.65698C21.4529 10.2327 22.1686 10.6278 22.7451 10.4444C23.3652 10.2496 23.6984 9.67391 23.5535 9.05585C23.1102 7.15371 22.1309 5.38139 20.7604 3.95619C19.4334 2.57615 17.7269 1.5517 15.8812 0.981625C13.9631 0.388969 11.8828 0.335348 9.92417 0.769962C7.93656 1.21304 6.07643 2.21209 4.61325 3.59213C3.18773 4.93549 2.13308 6.66265 1.59127 8.52246C1.52752 8.73695 1.47537 8.95426 1.42612 9.17156C1.35947 9.46789 1.38265 9.77551 1.54201 10.0408C1.68398 10.275 1.95924 10.498 2.23449 10.5601C2.53002 10.625 2.86322 10.6109 3.12689 10.4472C3.37896 10.2948 3.60206 10.0634 3.6658 9.77551Z" fill="#24EF5D"></path><path d="M21.5021 13.1925C21.3659 13.8049 21.1747 14.406 20.9255 14.9846C20.9632 14.8943 21.0037 14.8039 21.0414 14.7136C20.6966 15.5038 20.2533 16.2461 19.7144 16.9262C19.7752 16.85 19.8361 16.7738 19.8969 16.6976C19.3638 17.3693 18.7467 17.9704 18.0571 18.4925C18.1353 18.4333 18.2135 18.374 18.2918 18.3147C17.5993 18.834 16.8402 19.2658 16.0347 19.5988C16.1274 19.5621 16.2201 19.5226 16.3128 19.4859C15.4697 19.8302 14.586 20.0617 13.682 20.1802C13.7834 20.1661 13.8877 20.152 13.9891 20.1407C13.0938 20.2536 12.1899 20.2536 11.2975 20.1378C11.3989 20.152 11.5032 20.1661 11.6046 20.1774C10.7093 20.0588 9.83428 19.8218 8.99983 19.4803C9.09254 19.517 9.18526 19.5565 9.27798 19.5932C8.46671 19.2545 7.7018 18.8199 7.00352 18.2921C7.08175 18.3514 7.15998 18.4107 7.23821 18.4699C6.56022 17.9535 5.94887 17.3608 5.42155 16.6976C5.48239 16.7738 5.54324 16.85 5.60408 16.9262C5.06806 16.2489 4.62476 15.5067 4.28287 14.7193C4.32054 14.8096 4.3611 14.8999 4.39877 14.9902C4.16698 14.4455 3.98154 13.8839 3.84826 13.311C3.71498 12.7353 2.99933 12.3402 2.42274 12.5236C1.8027 12.7184 1.4695 13.2941 1.61437 13.9121C2.05767 15.8143 3.03699 17.5866 4.40746 19.0118C5.73447 20.3918 7.44103 21.4163 9.28667 21.9864C11.2047 22.579 13.2851 22.6326 15.2437 22.198C17.2313 21.755 19.0914 20.7559 20.5546 19.3759C21.9802 18.0325 23.0348 16.3053 23.5766 14.4455C23.6404 14.231 23.6925 14.0137 23.7418 13.7964C23.8084 13.5001 23.7852 13.1925 23.6259 12.9272C23.4839 12.693 23.2086 12.47 22.9334 12.4079C22.6379 12.343 22.3047 12.3571 22.041 12.5208C21.7889 12.6704 21.5658 12.9046 21.5021 13.1925Z" fill="#24EF5D"></path><path d="M2.36185 18.0244C2.79356 16.8222 3.22527 15.6171 3.65698 14.4149C3.71783 14.2455 3.77867 14.0762 3.83952 13.904C3.36435 14.1665 2.88917 14.429 2.414 14.6914C3.64829 15.1119 4.88548 15.5324 6.11977 15.9529C6.29361 16.0122 6.46745 16.0715 6.6442 16.1307C6.91655 16.2239 7.29321 16.1561 7.53659 16.0179C7.77708 15.8796 8.00597 15.6115 8.06971 15.3434C8.13635 15.0555 8.12187 14.7309 7.95382 14.4741C7.78287 14.2173 7.55977 14.0564 7.26134 13.9548C6.02705 13.5343 4.78986 13.1138 3.55557 12.6933C3.38173 12.6341 3.20789 12.5748 3.03115 12.5155C2.77038 12.4252 2.36764 12.4845 2.13875 12.6284C1.87509 12.7949 1.70993 13.0122 1.60563 13.3029C1.17392 14.5052 0.742205 15.7102 0.310493 16.9125C0.249648 17.0818 0.188803 17.2511 0.127957 17.4233C0.0323433 17.6886 0.101881 18.0555 0.243853 18.2925C0.385825 18.5268 0.661077 18.7497 0.93633 18.8118C1.23186 18.8767 1.56506 18.8626 1.82873 18.6989C2.09239 18.5324 2.25754 18.3123 2.36185 18.0244Z" fill="#24EF5D"></path></svg>