<svg xmlns="http://www.w3.org/2000/svg" width="24" height="22" viewBox="0 0 24 22" fill="none"><path d="M3.58194 9.29138C3.71812 8.67897 3.90934 8.07784 4.15852 7.4993C4.12085 7.58961 4.08029 7.67992 4.04262 7.77023C4.38741 6.98002 4.83071 6.23779 5.36963 5.55765C5.30878 5.63384 5.24794 5.71004 5.18709 5.78624C5.72021 5.11456 6.33736 4.51344 7.02694 3.99134C6.94871 4.05061 6.87048 4.10987 6.79225 4.16914C7.48473 3.64986 8.24384 3.21807 9.04932 2.88505C8.9566 2.92174 8.86389 2.96125 8.77117 2.99794C9.61431 2.65363 10.498 2.42221 11.402 2.30368C11.3006 2.31779 11.1963 2.3319 11.0949 2.34319C11.9902 2.23031 12.8942 2.23031 13.7866 2.34602C13.6851 2.3319 13.5808 2.31779 13.4794 2.30651C14.3747 2.42504 15.2497 2.6621 16.0842 3.00358C15.9915 2.96689 15.8988 2.92738 15.806 2.89069C16.6173 3.22935 17.3822 3.66397 18.0805 4.19171C18.0023 4.13245 17.924 4.07318 17.8458 4.01392C18.5238 4.53038 19.1351 5.12303 19.6625 5.78624C19.6016 5.71004 19.5408 5.63384 19.4799 5.55765C20.016 6.23497 20.4593 6.9772 20.8011 7.76458C20.7635 7.67427 20.7229 7.58396 20.6853 7.49365C20.917 8.03833 21.1025 8.59995 21.2358 9.17284C21.369 9.74857 22.0847 10.1437 22.6613 9.96023C23.2813 9.7655 23.6145 9.18978 23.4696 8.57172C23.0263 6.66958 22.047 4.89726 20.6766 3.47206C19.3496 2.09202 17.643 1.06757 15.7973 0.497494C13.8793 -0.0951619 11.7989 -0.148783 9.84031 0.285831C7.8527 0.728912 5.99257 1.72796 4.52939 3.108C3.10387 4.45135 2.04922 6.17852 1.5074 8.03833C1.44366 8.25282 1.39151 8.47013 1.34225 8.68743C1.27561 8.98376 1.29879 9.29138 1.45815 9.55666C1.60012 9.7909 1.87537 10.0139 2.15063 10.0759C2.44616 10.1409 2.77936 10.1267 3.04302 9.96305C3.2951 9.81066 3.51819 9.57924 3.58194 9.29138Z" fill="#8B16FF"></path><path d="M21.4182 12.7084C21.282 13.3208 21.0908 13.9219 20.8416 14.5004C20.8793 14.4101 20.9199 14.3198 20.9575 14.2295C20.6127 15.0197 20.1694 15.7619 19.6305 16.4421C19.6914 16.3659 19.7522 16.2897 19.8131 16.2135C19.2799 16.8852 18.6628 17.4863 17.9732 18.0084C18.0514 17.9491 18.1297 17.8899 18.2079 17.8306C17.5154 18.3499 16.7563 18.7817 15.9508 19.1147C16.0436 19.078 16.1363 19.0385 16.229 19.0018C15.3858 19.3461 14.5021 19.5775 13.5982 19.6961C13.6996 19.6819 13.8039 19.6678 13.9053 19.6565C13.01 19.7694 12.106 19.7694 11.2136 19.6537C11.315 19.6678 11.4193 19.6819 11.5207 19.6932C10.6254 19.5747 9.75041 19.3376 8.91597 18.9962C9.00868 19.0328 9.1014 19.0724 9.19412 19.109C8.38284 18.7704 7.61793 18.3358 6.91966 17.808C6.99789 17.8673 7.07612 17.9265 7.15435 17.9858C6.47636 17.4694 5.86501 16.8767 5.33768 16.2135C5.39853 16.2897 5.45937 16.3659 5.52022 16.4421C4.9842 15.7648 4.5409 15.0225 4.19901 14.2352C4.23667 14.3255 4.27724 14.4158 4.3149 14.5061C4.08311 13.9614 3.89768 13.3998 3.7644 12.8269C3.63112 12.2512 2.91546 11.8561 2.33888 12.0395C1.71884 12.2342 1.38564 12.81 1.53051 13.428C1.97381 15.3302 2.95313 17.1025 4.3236 18.5277C5.6506 19.9077 7.35717 20.9322 9.20281 21.5022C11.1209 22.0949 13.2012 22.1485 15.1598 21.7139C17.1475 21.2708 19.0076 20.2718 20.4708 18.8917C21.8963 17.5484 22.9509 15.8212 23.4928 13.9614C23.5565 13.7469 23.6086 13.5296 23.6579 13.3123C23.7245 13.016 23.7014 12.7084 23.542 12.4431C23.4 12.2088 23.1248 11.9859 22.8495 11.9238C22.554 11.8589 22.2208 11.873 21.9571 12.0367C21.7051 12.1863 21.482 12.4205 21.4182 12.7084Z" fill="#8B16FF"></path><path d="M2.27799 17.5403C2.7097 16.338 3.14141 15.133 3.57312 13.9307C3.63397 13.7614 3.69481 13.5921 3.75566 13.4199C3.28048 13.6824 2.80531 13.9448 2.33014 14.2073C3.56443 14.6278 4.80162 15.0483 6.0359 15.4688C6.20975 15.5281 6.38359 15.5873 6.56033 15.6466C6.83269 15.7397 7.20935 15.672 7.45273 15.5337C7.69321 15.3954 7.92211 15.1273 7.98585 14.8592C8.05249 14.5714 8.038 14.2468 7.86996 13.99C7.69901 13.7332 7.47591 13.5723 7.17748 13.4707C5.94319 13.0502 4.706 12.6297 3.47171 12.2092C3.29787 12.1499 3.12402 12.0907 2.94728 12.0314C2.68652 11.9411 2.28378 12.0004 2.05489 12.1443C1.79122 12.3108 1.62607 12.5281 1.52177 12.8188C1.09005 14.021 0.658342 15.2261 0.226631 16.4284C0.165785 16.5977 0.10494 16.767 0.044095 16.9392C-0.051519 17.2044 0.0180184 17.5713 0.159991 17.8084C0.301963 18.0426 0.577215 18.2656 0.852468 18.3277C1.148 18.3926 1.4812 18.3785 1.74486 18.2148C2.00853 18.0483 2.17368 17.8281 2.27799 17.5403Z" fill="#8B16FF"></path></svg>