<svg width="138" height="42" viewBox="0 0 138 42" fill="none" xmlns="http://www.w3.org/2000/svg">
<g clip-path="url(#clip0_55_2)">
<mask id="mask0_55_2" style="mask-type:luminance" maskUnits="userSpaceOnUse" x="0" y="0" width="138" height="42">
<path d="M138 0H0V42H138V0Z" fill="white"/>
</mask>
<g mask="url(#mask0_55_2)">
<mask id="mask1_55_2" style="mask-type:luminance" maskUnits="userSpaceOnUse" x="0" y="0" width="138" height="42">
<path d="M138 0H0V42H138V0Z" fill="white"/>
</mask>
<g mask="url(#mask1_55_2)">
<path d="M41.4208 19.827C41.2041 19.6256 40.7746 19.1287 40.4414 18.8838C39.8317 18.4343 38.9403 18.254 38.1042 18.254C37.5964 18.2491 37.0929 18.3479 36.6246 18.5444C36.186 18.7278 35.7882 18.9963 35.4538 19.3344C35.1212 19.6763 34.859 20.0804 34.6822 20.5236C34.492 20.9967 34.3961 21.5025 34.4003 22.0124C34.3951 22.5283 34.4908 23.0403 34.6822 23.5194C34.8612 23.9663 35.1265 24.3735 35.4629 24.7178C35.7974 25.0578 36.1952 25.3293 36.6338 25.5167C37.0928 25.7126 37.5872 25.8114 38.0861 25.8071C38.8648 25.7816 39.6281 25.5839 40.3214 25.2283C40.8363 24.9502 41.0148 24.6941 41.3007 24.428C41.4922 24.1717 42.6887 24.1905 43.1939 24.7172C43.699 25.2439 43.8086 26.0277 43.6491 26.2893C43.3191 27.2391 42.5825 27.7406 42.14 28.0677C41.7363 28.3678 41.2837 28.5958 40.8023 28.7414C40.2973 28.8945 39.7847 29.0213 39.2665 29.1208C38.8059 29.2105 38.3379 29.2562 37.8687 29.2571C36.9376 29.2596 36.015 29.0775 35.1547 28.7215C34.3015 28.3727 33.5244 27.861 32.8669 27.215C32.1972 26.5527 31.6582 25.7703 31.2784 24.9085C30.8734 23.9909 30.6694 22.9973 30.6801 21.9943C30.6682 20.9981 30.869 20.0107 31.2693 19.0983C31.6444 18.2468 32.1807 17.4761 32.8488 16.8286C33.5123 16.1905 34.2918 15.6851 35.1452 15.3398C36.0149 14.983 36.9465 14.801 37.8865 14.8042C38.4266 14.8037 38.9653 14.8615 39.4931 14.9766C40.1218 15.1191 40.7335 15.3287 41.3175 15.6017C41.8413 15.8617 43.5878 16.9811 43.7856 17.7388C43.9834 18.4966 43.7743 19.2042 43.1934 19.5975C42.6125 19.9908 41.5577 19.9541 41.4208 19.827ZM48.4908 24.1726C48.4871 24.4689 48.5459 24.7628 48.6633 25.035C48.7728 25.2873 48.9265 25.5179 49.1172 25.716C49.3077 25.9118 49.5364 26.0663 49.7889 26.17C50.0505 26.2792 50.3314 26.3347 50.615 26.3333C50.8986 26.3347 51.1795 26.2792 51.4411 26.17C51.6936 26.0663 51.9223 25.9118 52.1128 25.716C52.3035 25.5179 52.4571 25.2873 52.5667 25.0351C52.6829 24.7689 52.7417 24.4812 52.7392 24.1908C52.7405 23.9063 52.6817 23.6248 52.5667 23.3646C52.4571 23.1125 52.3035 22.8818 52.1128 22.6837C51.9223 22.488 51.6936 22.3335 51.4411 22.2297C51.1795 22.1205 50.8986 22.065 50.615 22.0665C50.3314 22.065 50.0505 22.1205 49.7889 22.2297C49.5364 22.3335 49.3077 22.488 49.1172 22.6837C48.928 22.8796 48.7744 23.107 48.6633 23.3556C48.5478 23.6123 48.4889 23.891 48.4908 24.1726ZM45.0233 24.1362C45.0184 23.4686 45.161 22.8084 45.4409 22.2024C45.7163 21.6073 46.1119 21.0757 46.6028 20.641C47.1223 20.1854 47.7226 19.8311 48.3727 19.5969C49.0912 19.3368 49.8507 19.2076 50.6148 19.2157C51.3722 19.2087 52.125 19.3347 52.8387 19.5879C53.4916 19.8179 54.0951 20.169 54.6179 20.6229C55.1165 21.0598 55.5158 21.5984 55.7888 22.2026C56.0725 22.8392 56.215 23.5299 56.2064 24.227C56.215 24.9253 56.0694 25.6167 55.7798 26.2521C55.5024 26.8537 55.1038 27.3916 54.6088 27.8317C54.0865 28.2887 53.4787 28.6373 52.8206 28.8576C52.0929 29.1048 51.3289 29.2275 50.5604 29.2207C49.8067 29.2283 49.0574 29.1054 48.3456 28.8577C47.6981 28.6336 47.1024 28.2816 46.5937 27.8227C46.1021 27.3729 45.7095 26.8257 45.4409 26.2159C45.156 25.5603 45.0135 24.8509 45.0233 24.1362ZM61.1987 24.1726C61.195 24.4689 61.2538 24.7628 61.3711 25.035C61.4806 25.2873 61.6344 25.5179 61.825 25.716C62.0156 25.9118 62.2442 26.0663 62.4968 26.17C62.7584 26.2792 63.0393 26.3347 63.3229 26.3333C63.6064 26.3347 63.8873 26.2792 64.1489 26.17C64.4015 26.0663 64.6302 25.9118 64.8207 25.716C65.0114 25.5179 65.1649 25.2873 65.2746 25.0351C65.3908 24.7689 65.4495 24.4812 65.447 24.1908C65.4484 23.9063 65.3896 23.6248 65.2746 23.3646C65.1649 23.1125 65.0114 22.8818 64.8207 22.6837C64.6302 22.488 64.4015 22.3335 64.1489 22.2297C63.8873 22.1205 63.6064 22.065 63.3229 22.0665C63.0393 22.065 62.7584 22.1205 62.4968 22.2297C62.2442 22.3335 62.0156 22.488 61.825 22.6837C61.6359 22.8796 61.4823 23.107 61.3711 23.3556C61.2557 23.6123 61.1968 23.891 61.1987 24.1726ZM57.731 24.1368C57.7261 23.4692 57.8687 22.809 58.1486 22.203C58.424 21.6079 58.8196 21.0763 59.3105 20.6416C59.83 20.186 60.4304 19.8317 61.0804 19.5975C61.7989 19.3371 62.5585 19.2078 63.3227 19.2157C64.0801 19.2087 64.8328 19.3347 65.5466 19.5879C66.1995 19.8179 66.803 20.169 67.3258 20.6229C67.8243 21.0598 68.2236 21.5984 68.4967 22.2026C68.7804 22.8392 68.9228 23.5299 68.9142 24.227C68.9228 24.9253 68.7773 25.6167 68.4876 26.2521C68.2104 26.8537 67.8119 27.3916 67.3169 27.8317C66.7945 28.2887 66.1867 28.6373 65.5286 28.8576C64.8009 29.1048 64.0369 29.2275 63.2684 29.2207C62.5147 29.2283 61.7654 29.1054 61.0534 28.8577C60.406 28.6336 59.8102 28.2816 59.3016 27.8227C58.81 27.3729 58.4173 26.8257 58.1488 26.2159C57.8637 25.5603 57.7214 24.8515 57.731 24.1368ZM70.802 19.5613C71.2015 19.0674 73.9158 19.27 74.0879 19.5613C74.26 19.8526 74.0879 20.7415 74.0879 20.7415C74.5357 20.1968 74.9896 19.8307 75.4495 19.6432C75.9647 19.4454 76.5136 19.3497 77.0653 19.3613C77.6413 19.3461 78.2139 19.4545 78.7446 19.679C79.2034 19.8854 79.6098 20.1926 79.9336 20.5778C80.1945 20.882 80.3809 21.2428 80.4782 21.6315C80.5803 22.0657 80.6291 22.5108 80.6235 22.9569V28.8758H77.3377V24.1726C77.3459 23.7978 77.3123 23.4232 77.2379 23.0559C77.1864 22.8001 77.0637 22.5641 76.8838 22.375C76.7471 22.2351 76.5793 22.1292 76.3941 22.0663C76.2067 22.0049 76.0104 21.9742 75.8132 21.9755C75.2564 21.9755 74.8298 22.1419 74.5334 22.4747C74.2369 22.8076 74.0885 23.2825 74.0882 23.8995V28.8758H70.8023C70.8023 28.8758 70.403 20.0552 70.802 19.5613ZM85.1074 19.5613L87.3222 24.3365L89.5734 19.5613C89.5734 19.5613 92.4171 19.1277 93.2405 19.5613C94.0639 19.995 88.5214 28.653 88.5214 28.653C88.5214 28.653 87.872 29.0122 87.3228 29.0122C86.7737 29.0122 86.1439 28.653 86.1439 28.653C86.1439 28.653 80.891 20.0479 81.4047 19.5613C81.9184 19.0747 85.1074 19.5613 85.1074 19.5613ZM100.738 22.8665C100.645 22.4324 100.409 22.0423 100.067 21.759C99.7181 21.4771 99.2803 21.329 98.8322 21.3413C98.3833 21.3217 97.9422 21.4635 97.5887 21.7409C97.2556 22.0294 97.0391 22.4296 96.9803 22.8665H100.738ZM96.8904 24.7723C96.8904 26.1886 97.5561 26.8966 98.8874 26.8966C99.2104 26.9115 99.5314 26.8383 99.816 26.6847C100.101 26.5312 100.338 26.3033 100.503 26.0252H103.68C103.039 28.1556 101.435 29.2207 98.8693 29.2207C98.1339 29.2295 97.4025 29.1096 96.7082 28.8668C96.0854 28.6492 95.5138 28.3062 95.0289 27.8591C94.5618 27.4214 94.1935 26.889 93.9488 26.2975C93.687 25.6521 93.5573 24.9608 93.5676 24.2643C93.5572 23.5486 93.6803 22.8375 93.9307 22.1671C94.1564 21.5687 94.5095 21.0267 94.9655 20.5784C95.4303 20.1319 95.9839 19.7887 96.5904 19.5707C97.2807 19.3253 98.0094 19.2054 98.742 19.2166C99.4655 19.2059 100.185 19.3258 100.866 19.5707C101.468 19.7891 102.014 20.1394 102.463 20.5959C102.912 21.0644 103.252 21.6252 103.462 22.2391C103.701 22.9433 103.817 23.6832 103.807 24.4269V24.772L96.8904 24.7723ZM105.677 19.5613C106.137 19.0548 108.141 19.18 108.963 19.5613C109.784 19.9426 108.963 21.0865 108.963 21.0865C109.282 20.5613 109.724 20.1219 110.252 19.8065C110.794 19.5011 111.409 19.3473 112.031 19.3613H112.313C112.432 19.3629 112.55 19.3751 112.667 19.3976V22.5387C112.227 22.32 111.742 22.2081 111.251 22.2122C110.488 22.2122 109.917 22.4391 109.535 22.8931C109.154 23.3471 108.964 24.0099 108.963 24.8818V28.8758H105.676C105.676 28.8758 105.218 20.0678 105.677 19.5613ZM120.255 21.958C119.62 21.8059 119.056 21.4863 118.475 21.4863C118.217 21.4746 117.962 21.5377 117.74 21.6678C117.653 21.717 117.582 21.7882 117.532 21.8744C117.483 21.9605 117.457 22.0583 117.458 22.1576C117.454 22.2475 117.47 22.3373 117.503 22.4209C117.549 22.5031 117.619 22.5696 117.703 22.6116C117.846 22.687 117.999 22.7419 118.157 22.7748C118.357 22.8232 118.62 22.8838 118.947 22.9563C119.854 23.1378 120.532 23.4617 120.979 23.9277C121.204 24.1663 121.38 24.4473 121.495 24.7543C121.611 25.0614 121.664 25.3882 121.652 25.716C121.66 26.2251 121.548 26.7289 121.325 27.1868C121.111 27.6177 120.801 27.9937 120.418 28.285C119.998 28.598 119.524 28.8317 119.02 28.9749C118.436 29.1438 117.83 29.2265 117.223 29.2201C115.964 29.2201 113.776 28.5484 113.501 28.1489C113.227 27.7494 113.897 25.9708 114.699 25.8248C115.502 25.6788 116.49 26.7697 117.313 26.7697C117.576 26.7809 117.836 26.7111 118.057 26.57C118.145 26.5173 118.218 26.4429 118.269 26.3539C118.32 26.2647 118.347 26.1641 118.348 26.0615C118.351 25.9597 118.336 25.8582 118.303 25.7619C118.262 25.6716 118.196 25.5957 118.112 25.544C117.98 25.4621 117.836 25.4008 117.685 25.3625C117.497 25.308 117.252 25.2505 116.95 25.1901C115.933 24.9842 115.222 24.6786 114.817 24.2732C114.411 23.8677 114.209 23.3079 114.209 22.5936C114.201 22.1089 114.3 21.6285 114.499 21.1864C114.69 20.7717 114.976 20.408 115.334 20.1242C115.726 19.8188 116.173 19.5907 116.65 19.4524C117.207 19.289 117.785 19.2096 118.366 19.2164C119.394 19.2164 120.935 19.3458 121.361 19.8155C121.788 20.2853 120.889 22.1097 120.255 21.958ZM126.428 24.1731C126.424 24.4695 126.483 24.7634 126.6 25.0356C126.71 25.2877 126.863 25.5183 127.054 25.7165C127.244 25.9121 127.473 26.0666 127.725 26.1704C127.987 26.2797 128.268 26.3352 128.551 26.3337C128.835 26.3352 129.116 26.2797 129.377 26.1704C129.63 26.0667 129.859 25.9121 130.049 25.7165C130.24 25.5183 130.393 25.2877 130.503 25.0356C130.619 24.7693 130.678 24.4817 130.675 24.1913C130.677 23.9068 130.618 23.6252 130.503 23.3651C130.393 23.1129 130.24 22.8823 130.049 22.6842C129.859 22.4884 129.63 22.3339 129.377 22.2302C129.116 22.1209 128.835 22.0654 128.551 22.0669C128.268 22.0654 127.987 22.1209 127.725 22.2302C127.473 22.3339 127.244 22.4884 127.053 22.6842C126.864 22.8801 126.71 23.1076 126.599 23.3563C126.484 23.6129 126.425 23.8912 126.427 24.1726L126.428 24.1731ZM122.96 24.1368C122.955 23.4692 123.098 22.809 123.378 22.203C123.653 21.6079 124.049 21.0763 124.54 20.6416C125.059 20.186 125.659 19.8317 126.309 19.5975C127.028 19.3372 127.787 19.2079 128.551 19.2157C129.308 19.2087 130.061 19.3347 130.774 19.5879C131.427 19.8179 132.031 20.169 132.554 20.6229C133.052 21.0598 133.451 21.5984 133.725 22.2026C134.008 22.8392 134.151 23.5299 134.142 24.227C134.151 24.925 134.005 25.6163 133.715 26.2515C133.438 26.8531 133.04 27.391 132.545 27.8312C132.022 28.2881 131.414 28.6367 130.756 28.857C130.029 29.1042 129.265 29.2269 128.496 29.2201C127.742 29.2275 126.993 29.1048 126.281 28.857C125.634 28.6329 125.038 28.2808 124.529 27.822C124.038 27.3721 123.645 26.8249 123.377 26.2151C123.092 25.5597 122.95 24.8514 122.96 24.1368Z" fill="black"/>
<path d="M18.7162 16.7641C18.5944 16.7537 18.477 16.7139 18.374 16.648C18.345 16.6287 18.3169 16.608 18.2901 16.5857C17.5499 16.047 16.6765 15.7212 15.7645 15.6436C13.1224 15.4048 10.8023 17.236 10.5843 19.7317C10.3942 21.9083 11.8721 23.8673 14.0075 24.4827C14.3248 24.5746 14.6503 24.6354 14.9794 24.6642C17.6248 24.8955 19.9956 23.1472 20.2136 20.6514C20.2289 20.2335 20.1907 19.8152 20.0998 19.4071C20.0367 19.1061 19.9438 18.8053 19.9195 18.7272C19.8941 18.6481 19.8846 18.5646 19.8917 18.4818C19.8993 18.3912 19.9268 18.3035 19.972 18.2247L20.6769 16.8042C20.6945 16.7736 20.7073 16.7402 20.7143 16.7056C20.7154 16.6768 20.7108 16.648 20.7007 16.621C20.6907 16.5942 20.6755 16.5694 20.6558 16.5483C20.6362 16.5272 20.6126 16.5102 20.5865 16.4981C20.5602 16.4863 20.5319 16.4796 20.5031 16.4785C20.4768 16.4781 20.4506 16.4802 20.4246 16.4848L18.7162 16.7641Z" fill="#3B60DD"/>
<path d="M25.0979 14.8224C25.2188 14.8413 25.3331 14.8894 25.4313 14.9622C25.4589 14.9835 25.4855 15.0062 25.5107 15.0302C26.2114 15.6195 27.0602 16.0057 27.9647 16.1468C30.5842 16.5698 33.0271 14.9049 33.4192 12.4301C33.7609 10.2716 32.4232 8.21365 30.3357 7.45036C30.0254 7.33644 29.7049 7.25301 29.3786 7.20122C26.7552 6.78568 24.2675 8.36421 23.8756 10.8391C23.8311 11.2551 23.84 11.675 23.9022 12.0887C23.944 12.3933 24.0157 12.7 24.0347 12.7795C24.0544 12.8603 24.058 12.9442 24.0451 13.0264C24.0311 13.1162 23.9978 13.2018 23.9472 13.2773L23.1445 14.6454C23.1247 14.6747 23.1097 14.707 23.1002 14.7411C23.0972 14.7698 23.0997 14.7988 23.1079 14.8264C23.116 14.854 23.1295 14.8799 23.1475 14.9023C23.1656 14.9247 23.188 14.9432 23.2134 14.957C23.2386 14.9707 23.2664 14.9793 23.295 14.9824C23.3213 14.9846 23.3477 14.9845 23.3739 14.9817L25.0979 14.8224Z" fill="#3BDD86"/>
<path d="M41.4208 19.827C41.2041 19.6256 40.7746 19.1287 40.4414 18.8838C39.8317 18.4343 38.9403 18.254 38.1042 18.254C37.5964 18.2491 37.0929 18.3479 36.6246 18.5444C36.186 18.7278 35.7882 18.9963 35.4538 19.3344C35.1212 19.6763 34.859 20.0804 34.6822 20.5236C34.492 20.9967 34.3961 21.5025 34.4003 22.0124C34.3951 22.5283 34.4908 23.0403 34.6822 23.5194C34.8612 23.9663 35.1265 24.3735 35.4629 24.7178C35.7974 25.0578 36.1952 25.3293 36.6338 25.5167C37.0928 25.7126 37.5872 25.8114 38.0861 25.8071C38.8648 25.7816 39.6281 25.5839 40.3214 25.2283C40.8363 24.9502 41.0148 24.6941 41.3007 24.428C41.4922 24.1717 42.6887 24.1905 43.1939 24.7172C43.699 25.2439 43.8086 26.0277 43.6491 26.2893C43.3191 27.2391 42.5825 27.7406 42.14 28.0677C41.7363 28.3678 41.2837 28.5958 40.8023 28.7414C40.2973 28.8945 39.7847 29.0213 39.2665 29.1208C38.8059 29.2105 38.3379 29.2562 37.8687 29.2571C36.9376 29.2596 36.015 29.0775 35.1547 28.7215C34.3015 28.3727 33.5244 27.861 32.8669 27.215C32.1972 26.5527 31.6582 25.7703 31.2784 24.9085C30.8734 23.9909 30.6694 22.9973 30.6801 21.9943C30.6682 20.9981 30.869 20.0107 31.2693 19.0983C31.6444 18.2468 32.1807 17.4761 32.8488 16.8286C33.5123 16.1905 34.2918 15.6851 35.1452 15.3398C36.0149 14.983 36.9465 14.801 37.8865 14.8042C38.4266 14.8037 38.9653 14.8615 39.4931 14.9766C40.1218 15.1191 40.7335 15.3287 41.3175 15.6017C41.8413 15.8617 43.5878 16.9811 43.7856 17.7388C43.9834 18.4966 43.7743 19.2042 43.1934 19.5975C42.6125 19.9908 41.5577 19.9541 41.4208 19.827ZM48.4908 24.1726C48.4871 24.4689 48.5459 24.7628 48.6633 25.035C48.7728 25.2873 48.9265 25.5179 49.1172 25.716C49.3077 25.9118 49.5364 26.0663 49.7889 26.17C50.0505 26.2792 50.3314 26.3347 50.615 26.3333C50.8986 26.3347 51.1795 26.2792 51.4411 26.17C51.6936 26.0663 51.9223 25.9118 52.1128 25.716C52.3035 25.5179 52.4571 25.2873 52.5667 25.0351C52.6829 24.7689 52.7417 24.4812 52.7392 24.1908C52.7405 23.9063 52.6817 23.6248 52.5667 23.3646C52.4571 23.1125 52.3035 22.8818 52.1128 22.6837C51.9223 22.488 51.6936 22.3335 51.4411 22.2297C51.1795 22.1205 50.8986 22.065 50.615 22.0665C50.3314 22.065 50.0505 22.1205 49.7889 22.2297C49.5364 22.3335 49.3077 22.488 49.1172 22.6837C48.928 22.8796 48.7744 23.107 48.6633 23.3556C48.5478 23.6123 48.4889 23.891 48.4908 24.1726ZM45.0233 24.1362C45.0184 23.4686 45.161 22.8084 45.4409 22.2024C45.7163 21.6073 46.1119 21.0757 46.6028 20.641C47.1223 20.1854 47.7226 19.8311 48.3727 19.5969C49.0912 19.3368 49.8507 19.2076 50.6148 19.2157C51.3722 19.2087 52.125 19.3347 52.8387 19.5879C53.4916 19.8179 54.0951 20.169 54.6179 20.6229C55.1165 21.0598 55.5158 21.5984 55.7888 22.2026C56.0725 22.8392 56.215 23.5299 56.2064 24.227C56.215 24.9253 56.0694 25.6167 55.7798 26.2521C55.5024 26.8537 55.1038 27.3916 54.6088 27.8317C54.0865 28.2887 53.4787 28.6373 52.8206 28.8576C52.0929 29.1048 51.3289 29.2275 50.5604 29.2207C49.8067 29.2283 49.0574 29.1054 48.3456 28.8577C47.6981 28.6336 47.1024 28.2816 46.5937 27.8227C46.1021 27.3729 45.7095 26.8257 45.4409 26.2159C45.156 25.5603 45.0135 24.8509 45.0233 24.1362ZM61.1987 24.1726C61.195 24.4689 61.2538 24.7628 61.3711 25.035C61.4806 25.2873 61.6344 25.5179 61.825 25.716C62.0156 25.9118 62.2442 26.0663 62.4968 26.17C62.7584 26.2792 63.0393 26.3347 63.3229 26.3333C63.6064 26.3347 63.8873 26.2792 64.1489 26.17C64.4015 26.0663 64.6302 25.9118 64.8207 25.716C65.0114 25.5179 65.1649 25.2873 65.2746 25.0351C65.3908 24.7689 65.4495 24.4812 65.447 24.1908C65.4484 23.9063 65.3896 23.6248 65.2746 23.3646C65.1649 23.1125 65.0114 22.8818 64.8207 22.6837C64.6302 22.488 64.4015 22.3335 64.1489 22.2297C63.8873 22.1205 63.6064 22.065 63.3229 22.0665C63.0393 22.065 62.7584 22.1205 62.4968 22.2297C62.2442 22.3335 62.0156 22.488 61.825 22.6837C61.6359 22.8796 61.4823 23.107 61.3711 23.3556C61.2557 23.6123 61.1968 23.891 61.1987 24.1726ZM57.731 24.1368C57.7261 23.4692 57.8687 22.809 58.1486 22.203C58.424 21.6079 58.8196 21.0763 59.3105 20.6416C59.83 20.186 60.4304 19.8317 61.0804 19.5975C61.7989 19.3371 62.5585 19.2078 63.3227 19.2157C64.0801 19.2087 64.8328 19.3347 65.5466 19.5879C66.1995 19.8179 66.803 20.169 67.3258 20.6229C67.8243 21.0598 68.2236 21.5984 68.4967 22.2026C68.7804 22.8392 68.9228 23.5299 68.9142 24.227C68.9228 24.9253 68.7773 25.6167 68.4876 26.2521C68.2104 26.8537 67.8119 27.3916 67.3169 27.8317C66.7945 28.2887 66.1867 28.6373 65.5286 28.8576C64.8009 29.1048 64.0369 29.2275 63.2684 29.2207C62.5147 29.2283 61.7654 29.1054 61.0534 28.8577C60.406 28.6336 59.8102 28.2816 59.3016 27.8227C58.81 27.3729 58.4173 26.8257 58.1488 26.2159C57.8637 25.5603 57.7214 24.8515 57.731 24.1368ZM70.802 19.5613C71.2015 19.0674 73.9158 19.27 74.0879 19.5613C74.26 19.8526 74.0879 20.7415 74.0879 20.7415C74.5357 20.1968 74.9896 19.8307 75.4495 19.6432C75.9647 19.4454 76.5136 19.3497 77.0653 19.3613C77.6413 19.3461 78.2139 19.4545 78.7446 19.679C79.2034 19.8854 79.6098 20.1926 79.9336 20.5778C80.1945 20.882 80.3809 21.2428 80.4782 21.6315C80.5803 22.0657 80.6291 22.5108 80.6235 22.9569V28.8758H77.3377V24.1726C77.3459 23.7978 77.3123 23.4232 77.2379 23.0559C77.1864 22.8001 77.0637 22.5641 76.8838 22.375C76.7471 22.2351 76.5793 22.1292 76.3941 22.0663C76.2067 22.0049 76.0104 21.9742 75.8132 21.9755C75.2564 21.9755 74.8298 22.1419 74.5334 22.4747C74.2369 22.8076 74.0885 23.2825 74.0882 23.8995V28.8758H70.8023C70.8023 28.8758 70.403 20.0552 70.802 19.5613ZM85.1074 19.5613L87.3222 24.3365L89.5734 19.5613C89.5734 19.5613 92.4171 19.1277 93.2405 19.5613C94.0639 19.995 88.5214 28.653 88.5214 28.653C88.5214 28.653 87.872 29.0122 87.3228 29.0122C86.7737 29.0122 86.1439 28.653 86.1439 28.653C86.1439 28.653 80.891 20.0479 81.4047 19.5613C81.9184 19.0747 85.1074 19.5613 85.1074 19.5613ZM100.738 22.8665C100.645 22.4324 100.409 22.0423 100.067 21.759C99.7181 21.4771 99.2803 21.329 98.8322 21.3413C98.3833 21.3217 97.9422 21.4635 97.5887 21.7409C97.2556 22.0294 97.0391 22.4296 96.9803 22.8665H100.738ZM96.8904 24.7723C96.8904 26.1886 97.5561 26.8966 98.8874 26.8966C99.2104 26.9115 99.5314 26.8383 99.816 26.6847C100.101 26.5312 100.338 26.3033 100.503 26.0252H103.68C103.039 28.1556 101.435 29.2207 98.8693 29.2207C98.1339 29.2295 97.4025 29.1096 96.7082 28.8668C96.0854 28.6492 95.5138 28.3062 95.0289 27.8591C94.5618 27.4214 94.1935 26.889 93.9488 26.2975C93.687 25.6521 93.5573 24.9608 93.5676 24.2643C93.5572 23.5486 93.6803 22.8375 93.9307 22.1671C94.1564 21.5687 94.5095 21.0267 94.9655 20.5784C95.4303 20.1319 95.9839 19.7887 96.5904 19.5707C97.2807 19.3253 98.0094 19.2054 98.742 19.2166C99.4655 19.2059 100.185 19.3258 100.866 19.5707C101.468 19.7891 102.014 20.1394 102.463 20.5959C102.912 21.0644 103.252 21.6252 103.462 22.2391C103.701 22.9433 103.817 23.6832 103.807 24.4269V24.772L96.8904 24.7723ZM105.677 19.5613C106.137 19.0548 108.141 19.18 108.963 19.5613C109.784 19.9426 108.963 21.0865 108.963 21.0865C109.282 20.5613 109.724 20.1219 110.252 19.8065C110.794 19.5011 111.409 19.3473 112.031 19.3613H112.313C112.432 19.3629 112.55 19.3751 112.667 19.3976V22.5387C112.227 22.32 111.742 22.2081 111.251 22.2122C110.488 22.2122 109.917 22.4391 109.535 22.8931C109.154 23.3471 108.964 24.0099 108.963 24.8818V28.8758H105.676C105.676 28.8758 105.218 20.0678 105.677 19.5613ZM120.255 21.958C119.62 21.8059 119.056 21.4863 118.475 21.4863C118.217 21.4746 117.962 21.5377 117.74 21.6678C117.653 21.717 117.582 21.7882 117.532 21.8744C117.483 21.9605 117.457 22.0583 117.458 22.1576C117.454 22.2475 117.47 22.3373 117.503 22.4209C117.549 22.5031 117.619 22.5696 117.703 22.6116C117.846 22.687 117.999 22.7419 118.157 22.7748C118.357 22.8232 118.62 22.8838 118.947 22.9563C119.854 23.1378 120.532 23.4617 120.979 23.9277C121.204 24.1663 121.38 24.4473 121.495 24.7543C121.611 25.0614 121.664 25.3882 121.652 25.716C121.66 26.2251 121.548 26.7289 121.325 27.1868C121.111 27.6177 120.801 27.9937 120.418 28.285C119.998 28.598 119.524 28.8317 119.02 28.9749C118.436 29.1438 117.83 29.2265 117.223 29.2201C115.964 29.2201 113.776 28.5484 113.501 28.1489C113.227 27.7494 113.897 25.9708 114.699 25.8248C115.502 25.6788 116.49 26.7697 117.313 26.7697C117.576 26.7809 117.836 26.7111 118.057 26.57C118.145 26.5173 118.218 26.4429 118.269 26.3539C118.32 26.2647 118.347 26.1641 118.348 26.0615C118.351 25.9597 118.336 25.8582 118.303 25.7619C118.262 25.6716 118.196 25.5957 118.112 25.544C117.98 25.4621 117.836 25.4008 117.685 25.3625C117.497 25.308 117.252 25.2505 116.95 25.1901C115.933 24.9842 115.222 24.6786 114.817 24.2732C114.411 23.8677 114.209 23.3079 114.209 22.5936C114.201 22.1089 114.3 21.6285 114.499 21.1864C114.69 20.7717 114.976 20.408 115.334 20.1242C115.726 19.8188 116.173 19.5907 116.65 19.4524C117.207 19.289 117.785 19.2096 118.366 19.2164C119.394 19.2164 120.935 19.3458 121.361 19.8155C121.788 20.2853 120.889 22.1097 120.255 21.958ZM126.428 24.1731C126.424 24.4695 126.483 24.7634 126.6 25.0356C126.71 25.2877 126.863 25.5183 127.054 25.7165C127.244 25.9121 127.473 26.0666 127.725 26.1704C127.987 26.2797 128.268 26.3352 128.551 26.3337C128.835 26.3352 129.116 26.2797 129.377 26.1704C129.63 26.0667 129.859 25.9121 130.049 25.7165C130.24 25.5183 130.393 25.2877 130.503 25.0356C130.619 24.7693 130.678 24.4817 130.675 24.1913C130.677 23.9068 130.618 23.6252 130.503 23.3651C130.393 23.1129 130.24 22.8823 130.049 22.6842C129.859 22.4884 129.63 22.3339 129.377 22.2302C129.116 22.1209 128.835 22.0654 128.551 22.0669C128.268 22.0654 127.987 22.1209 127.725 22.2302C127.473 22.3339 127.244 22.4884 127.053 22.6842C126.864 22.8801 126.71 23.1076 126.599 23.3563C126.484 23.6129 126.425 23.8912 126.427 24.1726L126.428 24.1731ZM122.96 24.1368C122.955 23.4692 123.098 22.809 123.378 22.203C123.653 21.6079 124.049 21.0763 124.54 20.6416C125.059 20.186 125.659 19.8317 126.309 19.5975C127.028 19.3372 127.787 19.2079 128.551 19.2157C129.308 19.2087 130.061 19.3347 130.774 19.5879C131.427 19.8179 132.031 20.169 132.554 20.6229C133.052 21.0598 133.451 21.5984 133.725 22.2026C134.008 22.8392 134.151 23.5299 134.142 24.227C134.151 24.925 134.005 25.6163 133.715 26.2515C133.438 26.8531 133.04 27.391 132.545 27.8312C132.022 28.2881 131.414 28.6367 130.756 28.857C130.029 29.1042 129.265 29.2269 128.496 29.2201C127.742 29.2275 126.993 29.1048 126.281 28.857C125.634 28.6329 125.038 28.2808 124.529 27.822C124.038 27.3721 123.645 26.8249 123.377 26.2151C123.092 25.5597 122.95 24.8514 122.96 24.1368Z" fill="white"/>
<path d="M16.9911 31.36C14.7859 31.7924 12.5018 31.5528 10.4343 30.6725C8.42078 29.8167 6.69861 28.3954 5.47641 26.5807C4.42873 25.0235 3.78666 23.2293 3.60854 21.3609C3.4304 19.4926 3.72185 17.6094 4.45641 15.8824C5.31189 13.8688 6.73284 12.1465 8.5471 10.9241C10.1039 9.87626 11.8979 9.23407 13.766 9.05591C15.6341 8.87774 17.5171 9.16925 19.2439 9.90394C20.3376 10.3693 21.3514 11.0038 22.248 11.7843C22.2823 11.9884 22.2958 12.1955 22.2886 12.4024C22.276 12.8036 22.1839 13.1982 22.0175 13.5635C21.8513 13.9288 21.6142 14.2574 21.32 14.5303C21.2176 14.6258 21.1088 14.7143 20.9946 14.795C20.8871 14.8569 20.7806 14.9226 20.6778 14.9907C20.4111 15.1339 20.1243 15.2362 19.827 15.2941C19.5975 15.3385 19.3638 15.3567 19.1301 15.3482C19.0808 15.3465 19.0309 15.3435 18.9818 15.3395L18.9735 15.3319L18.9663 15.3254C18.9087 15.2801 18.7937 15.1955 18.6846 15.1212C18.0405 14.6773 17.316 14.3634 16.5517 14.197C15.7624 14.0265 14.9467 14.0181 14.1541 14.1722C13.3614 14.3263 12.6083 14.6397 11.9404 15.0936C11.2938 15.5342 10.7395 16.097 10.3084 16.75C9.41463 18.1035 9.08735 19.7536 9.39679 21.3459C9.70625 22.9382 10.6278 24.3454 11.9634 25.2656C12.6075 25.7098 13.3322 26.0238 14.0967 26.1902C14.8859 26.3606 15.7016 26.369 16.4943 26.215C17.287 26.0609 18.04 25.7475 18.7081 25.2936C19.3546 24.853 19.909 24.2904 20.3399 23.6372C20.7754 22.9814 21.0802 22.2477 21.2376 21.4764C21.321 21.0659 21.3631 20.6481 21.3636 20.2292C21.3639 19.8307 21.3252 19.4331 21.2483 19.0422C21.2406 19.0028 21.2329 18.9632 21.2243 18.9246C21.2755 18.8016 21.3347 18.682 21.4011 18.5665C21.6199 18.1847 21.9192 17.8549 22.2781 17.6004C22.3888 17.5368 22.4989 17.4689 22.6054 17.3982C22.8117 17.2886 23.0297 17.2028 23.2552 17.1425C23.3256 17.1237 23.3969 17.1071 23.4673 17.0934C24.189 16.9523 24.9374 17.0784 25.5729 17.4484C25.6465 17.491 25.7189 17.5368 25.7882 17.5849C25.833 17.7672 25.8737 17.9525 25.9093 18.136C25.9811 18.5055 26.033 18.8703 26.0728 19.2835C26.125 19.8314 26.1348 20.3826 26.1023 20.9322C26.0007 22.6702 25.4991 24.3615 24.6367 25.8739C23.7744 27.3864 22.5746 28.6792 21.1306 29.6517C19.8797 30.4939 18.4717 31.0749 16.9911 31.36Z" fill="white"/>
</g>
</g>
</g>
<defs>
<clipPath id="clip0_55_2">
<rect width="138" height="42" fill="white"/>
</clipPath>
</defs>
</svg>
